<svg xmlns="http://www.w3.org/2000/svg" width="836" height="580.999" viewBox="0 0 836 580.999">
  <g id="classroom" transform="translate(-1094 -3512)">
    <g id="Vector_Smart_Object" data-name="Vector Smart Object" transform="translate(447.472 2421.964)">
      <g id="Group_2105" data-name="Group 2105">
        <ellipse id="Ellipse_14" data-name="Ellipse 14" cx="262.118" cy="16.186" rx="262.118" ry="16.186" transform="translate(646.528 1534.395)" fill="#d6b5d2" opacity="0.65" style="mix-blend-mode: multiply;isolation: isolate"/>
        <g id="Group_2087" data-name="Group 2087">
          <g id="Group_2086" data-name="Group 2086">
            <rect id="Rectangle_143" data-name="Rectangle 143" width="324.373" height="231.231" transform="translate(856.281 1131.609)" fill="#efefef"/>
            <path id="Path_1517" data-name="Path 1517" d="M856.283,1131.611v231.228h324.373V1131.611Zm311.246,217.333H869.406V1145.811h298.122Z" fill="#a7a7a7"/>
          </g>
          <path id="Path_1518" data-name="Path 1518" d="M819.7,1200.027c-6.508-.789-11.221-3.656-15.877-8.152,1.323,12.478-2.617,25.368-2.617,25.368s.624,40.907,17.262,35.991,5.937-31.541,5.937-31.541C820.555,1215.566,819.749,1206.332,819.7,1200.027Z" fill="#f7936a"/>
          <path id="Path_1519" data-name="Path 1519" d="M811.442,1157.929s19.048-2.016,22.53,5.673-.55,17.981.55,21.46.55,25.393-5.677,25.943-25.825-13.544-26.375-30.016S806.679,1158.161,811.442,1157.929Z" fill="#ffbb9a"/>
          <path id="Path_1520" data-name="Path 1520" d="M827.042,1204.278c.1-.008.186-.025.277-.033.62.012,1.17.029,1.728.046.194-.459.36-.913.571-1.376.376-.843.744-1.69,1.125-2.529.554-1.6,1.021-3.223,1.468-4.842a24.709,24.709,0,0,1-2.646-.446q-3.659,1.754-7.314,3.5c-.471.227-.947.434-1.418.657A76.605,76.605,0,0,1,827.042,1204.278Z" fill="#fff"/>
          <path id="Path_1521" data-name="Path 1521" d="M906.647,1251.239s6.392-4.88,7.4-6.251,5.359-11.412,7.823-16.052,15.451-9.771,16.51-6.466-4.387,4.024-10.134,7.962c0,0,.6.789,1.187.826s9.584,12.031,3.027,16.308-15.12,4.594-20.81,9.581C911.646,1257.147,907.085,1254.532,906.647,1251.239Z" fill="#ffbb9a"/>
          <path id="Path_1522" data-name="Path 1522" d="M811.111,1530.13s-2.295,13.7-.872,17.494c1.087,2.9,42.38,3.33,44.7.8s-1.55-6.921-3.581-7.937-23.117-10.251-23.117-10.251Z"/>
          <path id="Path_1523" data-name="Path 1523" d="M784.889,1532.741H767.255s-9.3,12.622-9.162,15.812,14.3,9.16,17.494,9.16,14.579-7.631,14.438-9.019S784.889,1532.741,784.889,1532.741Z"/>
          <path id="Path_1524" data-name="Path 1524" d="M835.039,1176.989a9.086,9.086,0,0,0,5.024-10.16c-1.464-7.321-5.127-11.9-15.935-14.915s-20.7-2.033-22.025,6.945c0,0,5.086,15.659,17.63,14.924S836.1,1173.051,835.039,1176.989Z" fill="#141c1e"/>
          <path id="Path_1525" data-name="Path 1525" d="M834.981,1193.573s-1.832-1.921-6.136-1.971c-7.062-.074-11.007,6.768-11.664,6.772-4.412.054-9.216-9.974-9.216-9.974-4.441-2.929-3.022-7-.641-8.053s3.618,2.516,3.982,4.532,1.724,3.309,2.886,1.6-1.464-.273.273-9.61-4.759-13.085-4.759-13.085l-7.281-8.052c-16.985,7.5-5.867,34.611-1.22,40.722,8.84,11.635,22.307,22.691,30.386,17.539C836.564,1210.823,834.981,1193.573,834.981,1193.573Zm-10.395,5.078s3.982.045,6.181-1.19C830.768,1197.461,828.7,1203.225,824.586,1198.651Z" fill="#141c1e"/>
          <path id="Path_1526" data-name="Path 1526" d="M837.061,1315.325l-50.05-.946s-7.616,12.469-9.32,48.46c-1.166,24.641-2.175,31.467-4.627,64.036-1.662,22.113-9.514,106.857-9.514,106.857h26.6s11.263-96.706,11.838-101.973c.2-1.863,6.789-53.641,6.789-53.641s-1.079,46.96-1.079,52.348S806.538,1531,806.538,1531h28.021s3.146-80.9,3.415-99.42C838.4,1401.6,840.968,1325,837.061,1315.325Z" fill="#4c555a"/>
          <path id="Path_1527" data-name="Path 1527" d="M847.579,1223.234l-9.816,37.338s18.126,33.727,27.268,34.194,52.655-37.941,52.655-37.941l-7.335-12.515s-37.667,28.207-39.776,27.5S854.05,1224.5,847.579,1223.234Z" fill="#1370b6"/>
          <path id="Path_1528" data-name="Path 1528" d="M801.37,1216.194s-23.237,3.157-28.864,6.2c0,0,15.807,25.3,10.887,41.577,0,0-4.4,55.868-4.031,68.048,0,0,29.2,10.821,62.4.43,0,0-.525-61.574-.5-71.1,0,0,2.853-25.6,6.322-38.119,0,0-12.3-2.62-24.9-4.95,0,0,1.025,1.3-4.308,8.094C815.167,1230.457,802.325,1224.5,801.37,1216.194Z" fill="#1370b6"/>
          <path id="Path_1529" data-name="Path 1529" d="M841.257,1261.353s.7-6.226,1.815-14.035c-4.151,4.334-4.751,23.29-5.309,26.443-2.543,14.424-21.463,19.638-33.718,11.887-11.428-7.23-12.784-25.373-15.505-37.193-1.451-6.3-5.487-11.168-10.494-15.452,4,8.825,8.228,21.431,5.346,30.971,0,0-4.4,55.868-4.031,68.048,0,0,29.2,10.821,62.4.43C841.762,1332.45,841.237,1270.876,841.257,1261.353Z" fill="#004d7d"/>
          <path id="Path_1530" data-name="Path 1530" d="M780.345,1351.444c1.728,2.12,7.5,9.015,6.562,12.06s-5.743-2.458-7.5-4.33-1.993,4.446-1.526,7.842,7.384,9.019,6.682,11.362-4.689-.938-8.985-7.264c0,0,6.8,7.809,5.234,8.9s-5.392-2.888-8.439-7.491c0,0,6.566,7.375,4.924,8.255s-6.152-4.276-7.852-6.912c0,0,5.578,6.057,4.044,7.053-1.232.793-5.276-2.834-6.855-7.635s3.105-20.493,2.869-23.48a47.831,47.831,0,0,0-1.191-6.714L778,1340.9C777.807,1340.945,777.765,1348.283,780.345,1351.444Z" fill="#ffbb9a"/>
          <path id="Path_1531" data-name="Path 1531" d="M780.461,1346.292,767.1,1349.8s-15.542-51.051-13.2-63.231,8.058-57.852,18.6-64.177c0,0,13.438,3.88,14.244,20.377.459,9.35-3.357,21.2-3.357,21.2s-8.414,16.1-9.493,27.36C773,1300.7,780.461,1346.292,780.461,1346.292Z" fill="#1370b6"/>
          <path id="Path_1532" data-name="Path 1532" d="M821.916,1216.192l-4.775,9.133-15.408-11.761-4.689,3.536,14.713,20.209,6.088-9.915,8.314,6.307.311-14.7Z" fill="#f8f8f8"/>
          <path id="Path_1533" data-name="Path 1533" d="M885.647,1286.155s82.528-106.655,83.979-107.117-78.476,112.179-78.476,112.179-1.542,1.562-4.424-.566C885.32,1289.618,884.667,1287.531,885.647,1286.155Z" fill="#141c1e"/>
          <path id="Path_1534" data-name="Path 1534" d="M934.242,1234.923s-5.532,2.02-8.451,2.186c-2.783.157-2.109-2.615-.252-3.619,1.923-1.037,8.918-4.322,10.742-3.442s1.125,4.156.046,4.561a2.685,2.685,0,0,1,.881,4.053s1.34,2.938-.331,4.268c0,0,.815,3.4-1.389,4.115s-8.166,1.025-8.935-.521c-.926-1.863,2.034-2.78,7.9-3.351a69.751,69.751,0,0,1-7.405.979c-1.488-.169-5.4-3.446,7.26-4.768,0,0-10.109,2.847-10.568.293C923.161,1236.431,934.242,1234.923,934.242,1234.923Z" fill="#ffbb9a"/>
        </g>
        <path id="Path_1535" data-name="Path 1535" d="M1482.281,1648.576c-2.9-.083-5.784-.161-8.761-.235v-97.627h9.009v-62.4c-2.894,1.954-5.276,3.809-5.172,4.57.145,1.062,1.526,1.2,4.11.1L1479,1497.58c-.872,2.14-.918,2.805-.633,2.805h-7.86c-1.447-9.462-3.018-23.022-1.836-31.963,1.972-14.919.409-34.4-11.97-45.46,0,0-.182.091-.463.227a19.444,19.444,0,0,1-2.7-4l3.639-14.535a14.37,14.37,0,0,0,2.584-3.776c1.315-2.686,1.058-5.619.467-8.429l4.3-17.188-13.95-3.487-.674,3.152a19.619,19.619,0,0,0-4,.012,6.173,6.173,0,0,1-2.018-.087c-2.3-.533-4.321-2.33-6.764-2.652-6.8-.9-11.259,4.7-17.035,6.4a34.08,34.08,0,0,0-4.094-7.3c2.981-.545,5.838-1.483,7.335-4.28,3.68-6.871-.93-12.073-3.118-18.63-2.489-7.462-.058-18.956-5.859-24.9-2.944-3.016-7.277-4.462-11.3-4.908-4.06-.446-7.587.264-11.536.967-3.055.545-5.78,1.847-8.807,2.388-2.047.368-2.754-.355-3.171,1.8a9.367,9.367,0,0,0,1.125,4.384,5.591,5.591,0,0,0,3.51,2.6c-1.133,4.7-1.41,10.9-2.481,12.928-.876,1.661-1.662,3-2.1,3.971-.384.851.583,1.355,1.774,1.772a2.065,2.065,0,0,1,1.278,1.322c.81,2.508,3.068,8.908,5.33,9.8a15.222,15.222,0,0,0,7.054,0c-.331,4.47-1.352,10.465-2.973,14.254-.116.236-.629,1.256-1.4,2.826a17.665,17.665,0,0,0-3.622,4.152c-9.688,14.7-27.247,34.483-28.236,35.094a56.132,56.132,0,0,1-5.59,1c-2.791.265-6.066.558-9.535.864l8.823-35.251-13.74-3.433-8.5,39.829c-6.682.558-12.652,1.041-15.819,1.293a75.774,75.774,0,0,1,.194-13.8c1.972-14.919.409-34.4-11.97-45.461,0,0-.182.091-.463.227-1.563-1.706-5.243-6.7-5.834-15.923a4.23,4.23,0,0,0,3.585-.235,13.025,13.025,0,0,0,5.768-6.152c1.554-3.169.943-6.7.141-9.937a34.722,34.722,0,0,1-1.311-4.5c-.157-1.52,1.365-12.924-12.685-11.507a6.172,6.172,0,0,1-2.018-.091c-2.3-.529-4.325-2.33-6.764-2.652-7.8-1.025-12.52,6.5-19.685,6.867-.236,2.008,2.282,5.185,3.535,6.759a11.39,11.39,0,0,0,4.048,3.012c.475,4.111.645,10.094-.136,12.341-1.017,2.938-2.766,4.97-2.344,5.983s2.882.219,3.56,1.467,4.321,9.462,6.442,10.647c.79.442,2.973.12,5.685-1.132a34.478,34.478,0,0,1-1.29,11.2c-.062.033-.12.074-.182.107a14.642,14.642,0,0,1-1.472,0s-.331.7-.852,1.81a17.066,17.066,0,0,0-1.943,2.314c-4.085,5.85-22.873,35.623-25.66,38.548s-54.747,15.452-54.751,15.452c-4.027-2.4-9.878-5.95-10.862-5.363-.306.182-1.166.686-2.307,1.372l5.743-8.763c-.194-4.144-3.51-2-3.51-2l-7.513,14.027c-3.787,2.434-7.521,5.082-7.393,6.032.145,1.062,1.526,1.2,4.114.1l-2.469,4.607c-.872,2.14-.918,2.805-.632,2.8h-27.26v149.169c-128.369.789-227.4,5.842-227.4,11.961,0,6.668,117.532,12.077,262.519,12.077,42.827,0,83.219-.475,118.93-1.314V1647.1c-121.708,1.049-213.825,5.958-213.825,11.862,0,6.668,117.532,12.073,262.519,12.073,48.81,0,94.457-.616,133.6-1.682Zm-68.536-149.392-.294,1.2H1402.49A90.8,90.8,0,0,0,1413.744,1499.183Zm-45.651-66.838a27.664,27.664,0,0,0,7.616-4.615c-1.282,7.363-2.456,13.982-2.82,16.035-3.87.95-8.029,2-12.263,3.1v-12.527h-5.908C1360.3,1433.961,1365.125,1433.337,1368.093,1432.346Zm2.113,50.724c-3.515.9-6.8,1.719-9.58,2.409v-2.409Zm-31.515-44.523h18.341v9.267c-7.852,2.091-15.737,4.338-22.29,6.507Zm10.9,144v6.082h4.172V1535.4c1.108,2.136,2.2,4.219,3.266,6.264v49.791c-11.618-.484-24.2-.917-37.564-1.3v-1.136a81.522,81.522,0,0,0,11.213.128c8.17-.264,7.571-.88,9.208-2.483s3.688-3.384,3.688-3.384.748,1.008,1.592,5.677l3.655-.529A13.893,13.893,0,0,1,1349.595,1582.552Zm-1.286-57.769c.43.839.856,1.673,1.286,2.508v10.441C1349.165,1533.58,1348.731,1529.212,1348.309,1524.783Zm8.584-38.379c-.434-1.161-.848-2.272-1.232-3.334h1.373v3.3Zm-23.762,85.856,6.028-1.525a8,8,0,0,1-1.36,2.425c-1.162,1.355-4.341,3.049-6.6,4.144h-.054l-.422.227c-1.129.537-1.96.9-1.96.9.066.025.132.041.2.066-2.5,1.376-6.607,3.694-9.493,5.578v-79.485h2.026C1325.915,1535.823,1333.13,1572.26,1333.13,1572.26Zm-13.661-71.874v-10.771h.1c.389,3.433.848,7.053,1.348,10.771Zm-1.844-49.881c.236-.128.488-.244.719-.384,0,0-.988-4.859-2-11.573h9.907l-4.482,21a11.3,11.3,0,0,0-2.1,1.454c-1.464,1.368-1.77,6.772-1.352,14.461h-6.14C1316.244,1475.459,1319.9,1462.9,1317.625,1450.5Zm-60.833-11.957h2.791l-.182.735h-10.965C1251.57,1439.1,1254.415,1438.857,1256.792,1438.547Zm-81.7-1.169,1.369-2.091a13.148,13.148,0,0,0,4.747-2.066c-.455.314-.736.578-.74.76v0c-1.439,1.285-2.427,2.545-1.679,3.169.732.607,2.4-.087,4.16-1.132a.412.412,0,0,0,.037.483,1.029,1.029,0,0,0,.6.19c-.434.57-.67,1.041-.5,1.277.318.438,1.265.4,2.572-.045.012.1-.037.211.058.289,1.158.95,6.376-1.669,8.575-2.843l.013.012c-1.757,1-5.177,3.053-4.8,3.619.128.186.447.281.922.277a18.371,18.371,0,0,0,6.653-2.153,11.751,11.751,0,0,0,3.134.615l.3,1.537s1-.17,2.7-.471l.132.471h-30.138C1173.693,1439.258,1175.091,1437.378,1175.091,1437.378Zm64.439,15.9c-13.156,5.322-25.35,10.577-28.591,13.006-1.422,1.066-1.894,5.355-1.72,11.618-4.829,26.678-5.8,96.185-5.8,96.185l2.613.248c-6.045,2.136-16.667,5.929-22.017,8.077-3.457,1.392-4.623,3.723-3.891,5.929q-15.53,0-30.592.087V1443.489h90Zm3.589-9.792h15.253c-.281,1.149-.484,1.971-.637,2.591-4.627,1.8-9.63,3.76-14.616,5.755Zm20.326,145.463q-9.861-.149-20.045-.264V1586.4a2.848,2.848,0,0,0,1.3-1.45c.409-1.682-.5-6.772-1.3-10.6v-2.314l.641-.066s-.277-5.309-.641-13.386v-68.966h20.045Zm36.542.7q-15.89-.372-32.949-.645v-99.4h48.322v10.771h-15.373Zm15.373-85.067v85.455q-5.793-.161-11.78-.306v-85.149Zm22.7,138.931a6.321,6.321,0,0,0-3.833,3.388q-15.592.044-30.65.165v-35.979c19.809-.483,38.134-1.074,54.528-1.764-.484,14.891-.637,25.86-.637,25.86l2.609.252C1354.035,1637.573,1343.413,1641.366,1338.063,1643.519Zm22.563-82.125v-12.911c.356.673.695,1.31,1.042,1.963C1361.292,1553.866,1360.944,1557.535,1360.626,1561.394Zm3.589-56.806h48.206c-.281,1.149-.484,1.971-.637,2.595-13.285,5.152-29.757,11.726-39.445,16.262C1369.557,1517.119,1366.783,1510.7,1364.215,1504.588Zm53.279,142.724q-9.644-.124-19.569-.207a2.252,2.252,0,0,0,.823-1.058c.409-1.677-.5-6.772-1.3-10.6v-2.31l.641-.07s-.277-5.309-.641-13.382v-12.432c7.5-.5,14.232-1.033,20.045-1.582Zm0-52.15c-5.813-.549-12.54-1.078-20.045-1.582v-42.866h20.045Zm8.6-186.536c.678,1.248,4.321,9.462,6.442,10.647.79.442,2.973.12,5.685-1.128a34.458,34.458,0,0,1-1.29,11.2c-.062.033-.12.074-.182.112-.509.021-1,.025-1.472,0,0,0-.331.7-.852,1.814a16.775,16.775,0,0,0-1.943,2.31c-1.2,1.723-3.688,5.536-6.653,10.1-1.422-8.383-3.729-24.443-2.406-34.239.074-.558.108-1.161.17-1.731C1424.494,1407.849,1425.66,1407.816,1426.1,1408.626Zm-1.079-19.791c.475,4.111.645,10.094-.136,12.341a18.861,18.861,0,0,1-.918,2.161,64.767,64.767,0,0,0-1.067-15.758A13.381,13.381,0,0,0,1425.019,1388.835Zm26.09,259.009c-9.712-.19-19.751-.351-30.022-.488v-42.052c14.418-1.5,22.488-3.148,22.488-4.892s-8.071-3.392-22.488-4.888v-44.812h5.743v37.92H1431v-37.92h20.107Zm29.154-149.368.434-.661-.55,2.57h-1.77C1478.865,1500.357,1480.263,1498.477,1480.263,1498.477Zm-10.854,149.764q-7.225-.167-14.707-.322v-97.205h14.707Zm-3.179-111.679c4.064,0,7.728-12.56,5.445-24.959.236-.128.488-.244.719-.38,0,0-.529-2.611-1.211-6.635h8.067l-6.822,31.975Z" fill="#d6b5d2" opacity="0.65" style="mix-blend-mode: multiply;isolation: isolate"/>
        <path id="Path_1536" data-name="Path 1536" d="M1239.29,1588.642l-1.195-.012c.4-.12.8-.24,1.195-.372Z" fill="#d6b5d2" opacity="0.65" style="mix-blend-mode: multiply;isolation: isolate"/>
        <path id="Path_1537" data-name="Path 1537" d="M1175.789,1433.379l.215-.087-.07.066-.318.157Z" fill="#e0e0e0"/>
        <path id="Path_1538" data-name="Path 1538" d="M1170.973,1432.767l-.17.095.277-.182Z" fill="#e0e0e0"/>
        <path id="Path_1539" data-name="Path 1539" d="M1034.706,1430.772l.124,9.945s42.265,2.657,54.127-1.425,36.873-37.024,39.011-42.548c2.572-6.635-7.215-22.761-16.9-8.061s-27.247,34.479-28.236,35.09S1034.706,1430.772,1034.706,1430.772Z" fill="#ad5c49"/>
        <path id="Path_1540" data-name="Path 1540" d="M1044.022,1435.1s-4.267-1.43-5.152-1.533-10.854-5.318-12.3-4.743-15.071,5.83-15.1,7.164,3.469.938,10.916-2.595c0,0-9.65,3.785-8.4,5.119s10.01-3.14,10.01-3.14-8.753,3.636-7.281,4.846,9.6-3.392,9.6-3.392-6.314,3.429-5.8,4.181,4.089-.016,8.414-2.289c0,0,.736-.211,2.382.822s13.669.8,13.669.8Z" fill="#f7936a"/>
        <path id="Path_1541" data-name="Path 1541" d="M1005.565,1438.51l14.277-24.187s3.4-2,3.423,2.149l-16.477,22.989S1002.989,1444.15,1005.565,1438.51Z"/>
        <path id="Path_1542" data-name="Path 1542" d="M1039.544,1431.891s-4.689.012-5.669-.112-12.851-8.875-14.347-8.065-15.584,8.218-15.41,10.032,3.928,1.2,11.536-3.743c0,0-9.973,5.334-8.4,7.123s10.461-4.466,10.461-4.466-9.014,5.111-7.223,6.73,9.973-4.8,9.973-4.8-6.38,4.785-5.71,5.8,4.47-.107,8.852-3.281a7.922,7.922,0,0,1,3.531,1.991c3.585,3.392,14.248,1.264,14.248,1.264Z" fill="#ffbb9a"/>
        <path id="Path_1543" data-name="Path 1543" d="M1119.107,1362.818c1.48-.306,8.567-15.25,11.6-18.159,1.455,10.209,7.628,34.413,7.628,34.413-7.492,8.028-22.431,3.107-22.431,3.107C1118.359,1376.87,1119.533,1366.285,1119.107,1362.818Z" fill="#f7936a"/>
        <path id="Path_1544" data-name="Path 1544" d="M1126.078,1326.435s-13.673,3.074-16.295,7.061-2.609,14.349-4.056,17.089c-.881,1.661-1.662,3-2.1,3.97-.385.855.583,1.355,1.774,1.777a2.065,2.065,0,0,1,1.278,1.322c.81,2.508,3.068,8.908,5.33,9.8,2.82,1.107,16.745.682,20.934-11.441S1134.836,1323.836,1126.078,1326.435Z" fill="#ffbb9a"/>
        <path id="Path_1545" data-name="Path 1545" d="M1063.909,1574.5l9.766-1.611s.5,9.271,1.307,11.4c0,0-10.953,5.239-22.178,1.095,0,0,7.157-3.082,9.034-5.268A10.8,10.8,0,0,0,1063.909,1574.5Z" fill="#ffbb9a"/>
        <path id="Path_1546" data-name="Path 1546" d="M1074.122,1579.92s-7.422,5.16-18.937,4.326c0,0-14.016,7.495-14.918,9.371-1.265,2.628,4.875,2.793,14.451,2.479,8.174-.269,7.575-.88,9.212-2.483s3.684-3.384,3.684-3.384.753,1.008,1.6,5.673l3.655-.525s-.426-4.483,1.336-6.871C1075.437,1586.824,1076.859,1582.911,1074.122,1579.92Z"/>
        <path id="Path_1547" data-name="Path 1547" d="M1103.28,1572.1l7.376-2.012s4.329,7.214,5.594,9.106c0,0-9.522,7.528-21.389,5.97,0,0,6.3-4.586,7.641-7.135A10.775,10.775,0,0,0,1103.28,1572.1Z" fill="#ffbb9a"/>
        <path id="Path_1548" data-name="Path 1548" d="M1115.427,1577.491s-6.913,5.822-18.457,6.053c0,0-13.264,8.755-13.992,10.705-1.017,2.731,5.115,2.33,14.62,1.136,8.112-1.02,7.459-1.574,8.943-3.322s3.357-3.71,3.357-3.71.839.938,2.113,5.5l3.589-.859s-.839-4.425.695-6.966C1117.375,1584.242,1118.429,1580.218,1115.427,1577.491Z"/>
        <path id="Path_1549" data-name="Path 1549" d="M1137.3,1437.444l-19.251,13.622s-62.458,12.023-70.385,17.964,50.422,111.241,50.422,111.241l18.168-6.028s-43.592-93.235-39.631-97.193,68.189-9.821,72.237-11.031C1152.817,1464.829,1147.165,1450.608,1137.3,1437.444Z" fill="#dedfe1"/>
        <path id="Path_1550" data-name="Path 1550" d="M1137.3,1437.444l-19.251,13.622s-62.458,12.023-70.385,17.964,50.422,111.241,50.422,111.241l18.168-6.028s-43.592-93.235-39.631-97.193,68.189-9.821,72.237-11.031C1152.817,1464.829,1147.165,1450.608,1137.3,1437.444Z" fill="#5dd4e2"/>
        <path id="Path_1551" data-name="Path 1551" d="M1143.212,1443.629l-25.168,2.12s-66.229,14.618-74.333,22.191c-7.236,6.764,13.458,111.261,13.458,111.261l19.71-4.979s-11.114-93.313-6.276-96.14c4.168-2.442,71.869-2.442,76.094-2.442C1152.8,1475.641,1157.1,1457.64,1143.212,1443.629Z" fill="#dedfe1"/>
        <g id="Group_2088" data-name="Group 2088">
          <path id="Path_1552" data-name="Path 1552" d="M1136.109,1374.023a183.085,183.085,0,0,1-19.962,7.569s-11.738,23.158-12.532,29.62-6.814,40.209-6.814,40.209,37.315,12.974,54.069,4.7c0,0-5.251-26.042-3.4-39.742S1147.719,1384.175,1136.109,1374.023Z" fill="#ad5c49"/>
          <path id="Path_1553" data-name="Path 1553" d="M1131.61,1413.423c-.037,11.589-7.5,17.266-15.174,24.761-4.532,4.429-10.3,8.912-12.921,15.386-4.11-1.206-6.715-2.148-6.715-2.148s3.651-17.365,5.429-30.037c7.7-3.438,11.784-10.792,14.533-18.617,1.592-4.532,2.456-7.462,5.33-10.833,8.521.231,9.038,10.193,9.522,19.5C1131.615,1412.109,1131.615,1412.774,1131.61,1413.423Z" fill="#993821"/>
        </g>
        <g id="Group_2090" data-name="Group 2090">
          <path id="Path_1554" data-name="Path 1554" d="M1188.569,1382.206l-25.187,100.621-10.425-2.606,21.661-101.5Z" fill="#a7a7a7"/>
          <g id="Group_2089" data-name="Group 2089">
            <rect id="Rectangle_144" data-name="Rectangle 144" width="4.172" height="109.822" transform="translate(1073.632 1485.757)" fill="#b6b6b6"/>
            <rect id="Rectangle_145" data-name="Rectangle 145" width="4.172" height="109.822" transform="translate(1150.871 1485.757)" fill="#b6b6b6"/>
          </g>
          <rect id="Rectangle_146" data-name="Rectangle 146" width="103.797" height="14.37" transform="translate(1062.439 1475.642)" fill="#48525b"/>
        </g>
        <path id="Path_1555" data-name="Path 1555" d="M1113.621,1338.119c3.548.1,6.483,1.3,8.385,4.723a8.724,8.724,0,0,1,1.116,5.6c-.19,1.008-2.741,5.169-.136,5.512,1.224.157,2.134-2.4,2.758-3.136,1.679-1.967,3.622-1.351,4.829.74,1.488,2.574-.087,4.413-1.956,6.119-2.675,2.433-1.24,3.07-.6,6.392.81,4.165-1.236,8.412,1.827,11.763a8.357,8.357,0,0,0,8.075,2.756c3.676-.545,7.591-1.173,9.444-4.632,3.68-6.867-.93-12.073-3.118-18.625-2.489-7.466-.062-18.96-5.859-24.9-2.944-3.016-7.281-4.466-11.3-4.908-4.06-.446-7.587.26-11.536.967-3.055.545-5.78,1.847-8.807,2.388-2.051.368-2.754-.355-3.171,1.8a9.329,9.329,0,0,0,1.125,4.384c1.687,2.946,5.23,3.078,8.261,3.057C1113.182,1338.111,1113.4,1338.115,1113.621,1338.119Z" fill="#141c1e"/>
        <g id="Group_2091" data-name="Group 2091">
          <rect id="Rectangle_147" data-name="Rectangle 147" width="3.593" height="158.577" transform="translate(1081.073 1441.289)" fill="#7695a8"/>
          <rect id="Rectangle_148" data-name="Rectangle 148" width="3.592" height="158.577" transform="translate(963.567 1441.289)" fill="#7695a8"/>
          <rect id="Rectangle_149" data-name="Rectangle 149" width="121.099" height="4.204" transform="translate(963.567 1441.287)" fill="#7695a8"/>
        </g>
        <path id="Path_1556" data-name="Path 1556" d="M1036.071,1428.268l.128,13.019s43.674,2.086,55.934-2,38.1-37.024,40.309-42.548c2.659-6.635-7.455-22.761-17.465-8.061s-28.157,34.479-29.178,35.09S1036.071,1428.268,1036.071,1428.268Z" fill="#ad5c49"/>
        <path id="Path_1557" data-name="Path 1557" d="M1257.214,1639.238s-14.368,7.073-22.071,10.263c-6.4,2.644-5.073,8.478,2.2,10.631s13.272.74,14.93-1.566,5.727-1.446,7.269-.706,13.686-2.058,14.368-4.867-2.328-15.192-2.328-15.192Z"/>
        <path id="Path_1558" data-name="Path 1558" d="M1332.134,1505.885l-24.423.322s-59.754,22.274-67.561,28.124,12.83,107.8,12.83,107.8l20.272-2.12s-4.78-91.223-.877-95.123,67.155-9.668,71.141-10.862C1347.42,1532.856,1341.854,1518.846,1332.134,1505.885Z" fill="#ad5c49"/>
        <path id="Path_1559" data-name="Path 1559" d="M1332.134,1505.885l-24.423.322s-59.754,22.274-67.561,28.124,12.83,107.8,12.83,107.8l20.272-2.12s-4.78-91.223-.877-95.123,67.155-9.668,71.141-10.862C1347.42,1532.856,1341.854,1518.846,1332.134,1505.885Z" fill="#993821"/>
        <g id="Group_2093" data-name="Group 2093">
          <path id="Path_1560" data-name="Path 1560" d="M1381.7,1451.482l-24.806,99.1-10.267-2.566,21.334-99.967Z" fill="#a7a7a7"/>
          <g id="Group_2092" data-name="Group 2092">
            <rect id="Rectangle_150" data-name="Rectangle 150" width="4.109" height="108.161" transform="translate(1268.501 1553.466)" fill="#b6b6b6"/>
            <rect id="Rectangle_151" data-name="Rectangle 151" width="4.109" height="108.161" transform="translate(1344.571 1553.466)" fill="#b6b6b6"/>
          </g>
          <rect id="Rectangle_152" data-name="Rectangle 152" width="102.227" height="14.153" transform="translate(1257.477 1543.505)" fill="#48525b"/>
        </g>
        <path id="Path_1561" data-name="Path 1561" d="M1325.63,1407.94l-14.017,2.987s4.031,17.225,0,26.715c0,0,7.641,3,20.52-6.751C1332.134,1430.891,1324.2,1424.186,1325.63,1407.94Z" fill="#f7936a"/>
        <path id="Path_1562" data-name="Path 1562" d="M1327.929,1387.939s-15.6-5.871-19.776-3.727-9.266,5.309-8.476,8.47,1.385,12.5.368,15.44-2.77,4.966-2.344,5.983,2.882.219,3.56,1.463,4.321,9.466,6.442,10.647,14.207-3.074,19.8-16.2S1331.4,1390.17,1327.929,1387.939Z" fill="#ffbb9a"/>
        <path id="Path_1563" data-name="Path 1563" d="M1239.724,1640.808s-18.767,6.544-26.5,9.651c-6.429,2.586-5.16,8.428,2.1,10.655s13.264.868,14.943-1.421,5.743-1.392,7.277-.636,13.7-1.921,14.413-4.727-1.013-11.015-1.013-11.015Z"/>
        <path id="Path_1564" data-name="Path 1564" d="M1335.061,1397.888a34.785,34.785,0,0,1-1.311-4.5c-.157-1.52,1.365-12.92-12.685-11.5a6.174,6.174,0,0,1-2.018-.091c-2.3-.529-4.325-2.33-6.768-2.652-7.8-1.025-12.516,6.5-19.681,6.867-.236,2.008,2.282,5.185,3.531,6.755a13.154,13.154,0,0,0,6.243,3.9,22.8,22.8,0,0,0,8.542.624c1.435-.149,4.027-1.777,5.268-.57,1.273,1.235.285,5.966.393,7.59.078,1.186-.12,2.182,1.22,2.682a1.394,1.394,0,0,0,.38.087c.112-.012.227-.025.347-.033,1.414-.434,1.125-4.446,1.5-5.615,1.3-4.123,6.214-3.615,6.835.4.533,3.433-2.774,5.8-3.738,6.408-.116.587-.2,1.144-.256,1.669a4.237,4.237,0,0,0,6.293,4.07,13.016,13.016,0,0,0,5.768-6.156C1336.471,1404.655,1335.864,1401.123,1335.061,1397.888Z" fill="#141c1e"/>
        <path id="Path_1565" data-name="Path 1565" d="M1338.886,1502.274l-27.272,5.429s-61.979,22.369-69.781,28.219-9.2,106.208-9.2,106.208l20.347,1.967s8.708-95.4,13.471-98.189c4.11-2.4,70.781-2.4,74.945-2.4C1347.4,1543.5,1352.572,1516.074,1338.886,1502.274Z" fill="#ad5c49"/>
        <path id="Path_1566" data-name="Path 1566" d="M1227.237,1494.523l2.489,12.8s52.949-9.152,58.655-13.378,39.887-41.209,34.872-51.513-11.515-7.763-15.6-1.913-22.873,35.623-25.66,38.548S1227.237,1494.523,1227.237,1494.523Z" fill="#1370b6"/>
        <g id="Group_2094" data-name="Group 2094">
          <path id="Path_1567" data-name="Path 1567" d="M1331.861,1429.908s-13.682,6.925-21.418,6.487c0,0-12.524,26.306-13.372,33.342s-10.378,45.4-10.378,45.4,41.591,14.362,60.862,3.024c0,0-5.693-27.876-3.721-42.8S1344.244,1440.964,1331.861,1429.908Z" fill="#1370b6"/>
          <path id="Path_1568" data-name="Path 1568" d="M1326.006,1478.8c3.027-6.974,14.877-18.217,8.914-26.046-4.8-6.3-8.236-6.73-13.5-.731-4.941,5.623-9.452,11.684-15.063,16.655a95.676,95.676,0,0,1-9.468,6.921c0,14.461-10.192,39.54-10.192,39.54s21.529,6.887,33.292,7.061C1313.685,1508.463,1319.656,1493.445,1326.006,1478.8Z" fill="#004d7d"/>
        </g>
        <path id="Path_1569" data-name="Path 1569" d="M1242.225,1497.717s-4.267,1.992-5.152,1.888-10.854-5.317-12.3-4.743-15.071,5.83-15.1,7.164,3.465.938,10.916-2.595c0,0-9.65,3.785-8.4,5.119s10.01-3.14,10.01-3.14-8.753,3.636-7.281,4.846,9.6-3.392,9.6-3.392-6.314,3.429-5.805,4.185,4.093-.021,8.418-2.293c0,0,.736-.211,2.382.822s13.669-2.62,13.669-2.62Z" fill="#f7936a"/>
        <path id="Path_1570" data-name="Path 1570" d="M1203.041,1504.526l13.26-24.761s3.316-2.14,3.51,2l-15.509,23.654S1200.7,1510.26,1203.041,1504.526Z"/>
        <path id="Path_1571" data-name="Path 1571" d="M1236.714,1496.5s-4.685.207-5.669.124-13.206-8.333-14.67-7.462-15.228,8.854-14.98,10.66,3.978,1.041,11.37-4.214c0,0-9.745,5.739-8.1,7.462s10.266-4.9,10.266-4.9-8.794,5.483-6.934,7.024,9.762-5.206,9.762-5.206-6.177,5.041-5.462,6.028,4.457-.293,8.708-3.644a7.925,7.925,0,0,1,3.61,1.843c3.721,3.239,14.285.673,14.285.673Z" fill="#ffbb9a"/>
        <g id="Group_2095" data-name="Group 2095">
          <rect id="Rectangle_153" data-name="Rectangle 153" width="3.592" height="158.577" transform="translate(1292.656 1507.329)" fill="#7695a8"/>
          <rect id="Rectangle_154" data-name="Rectangle 154" width="3.592" height="158.577" transform="translate(1175.149 1507.329)" fill="#7695a8"/>
          <rect id="Rectangle_155" data-name="Rectangle 155" width="121.099" height="4.204" transform="translate(1175.149 1507.328)" fill="#7695a8"/>
        </g>
        <path id="Path_1572" data-name="Path 1572" d="M1228.974,1494.54l3.655,13.064s53.933,1.549,59.924-2.677,47.255-46.1,41.988-56.4-12.131-7.788-16.39-1.913c-3.924,5.408-30,35.524-33.069,38.623C1282.171,1488.173,1228.974,1494.54,1228.974,1494.54Z" fill="#1370b6"/>
        <path id="Path_1573" data-name="Path 1573" d="M838.924,1099.709h-9.68v-9.673H823.8v9.673h-9.681v5.443H823.8v9.673h5.447v-9.673h9.68Z" fill="#ccc"/>
        <path id="Path_1574" data-name="Path 1574" d="M1236.852,1149.916h-9.681v-9.673h-5.447v9.673h-9.681v5.443h9.681v9.673h5.447v-9.673h9.681Z" fill="#ccc"/>
        <path id="Path_1575" data-name="Path 1575" d="M1443.736,1234.587h-9.681v-9.673h-5.447v9.673h-9.681v5.443h9.681v9.673h5.447v-9.673h9.681Z" fill="#ccc"/>
        <path id="Path_1576" data-name="Path 1576" d="M943.161,1630.73h-9.681v-9.673h-5.447v9.673h-9.68v5.443h9.68v9.673h5.447v-9.673h9.681Z" fill="#fff"/>
        <path id="Path_1577" data-name="Path 1577" d="M733.764,1410.188h-9.68v-9.673h-5.447v9.673h-9.68v5.443h9.68v9.673h5.447v-9.673h9.68Z" fill="#fff"/>
        <g id="Group_2096" data-name="Group 2096">
          <path id="Path_1578" data-name="Path 1578" d="M750.741,1170.936c0,7.548-9.5,9.767-9.5,12.709v1.165h-9.5v-2.776c0-4.049,7.223-6.379,7.223-10.875a3.644,3.644,0,0,0-3.663-3.884c-3,0-3.614,2.33-3.614,4.661a13.993,13.993,0,0,0,.054,1.5H721.529c-.058-.723-.169-1.388-.169-2.111,0-7.214,6.442-11.709,15.162-11.709C745.019,1159.615,750.741,1164.057,750.741,1170.936Zm-8.666,27.525H731.081V1188.2h10.994Z" fill="#ccc"/>
        </g>
        <g id="Group_2097" data-name="Group 2097">
          <path id="Path_1579" data-name="Path 1579" d="M1317.2,1153.868v29.9l-3.221,20.836H1303.2l-3.221-20.836v-29.9Zm-.724,63.846a8.253,8.253,0,1,1-8.294-8.21A7.9,7.9,0,0,1,1316.48,1217.714Z" fill="#ccc"/>
        </g>
        <g id="Group_2098" data-name="Group 2098">
          <path id="Path_1580" data-name="Path 1580" d="M1216.71,1301.128h-13.553v-12.713h13.553Z" fill="#fff"/>
          <path id="Path_1581" data-name="Path 1581" d="M1238,1301.128h-13.554v-12.713H1238Z" fill="#fff"/>
          <path id="Path_1582" data-name="Path 1582" d="M1259.3,1301.128h-13.554v-12.713H1259.3Z" fill="#fff"/>
        </g>
        <g id="Group_2099" data-name="Group 2099">
          <path id="Path_1583" data-name="Path 1583" d="M936.131,1414.295H922.578v-12.713h13.553Z" fill="#fff"/>
          <path id="Path_1584" data-name="Path 1584" d="M957.421,1414.295H943.867v-12.713h13.553Z" fill="#fff"/>
          <path id="Path_1585" data-name="Path 1585" d="M978.719,1414.295H965.165v-12.713h13.553Z" fill="#fff"/>
        </g>
        <g id="Group_2104" data-name="Group 2104">
          <g id="Group_2101" data-name="Group 2101">
            <g id="Group_2100" data-name="Group 2100">
              <path id="Path_1586" data-name="Path 1586" d="M999.5,1287.271h106.6a5.327,5.327,0,0,0,5.33-5.326v-68.614a5.327,5.327,0,0,0-5.33-5.326H999.5a5.327,5.327,0,0,0-5.33,5.326v23.2l-33.466,2.545,33.466,25.2v17.671A5.327,5.327,0,0,0,999.5,1287.271Z" fill="#ad5c49"/>
            </g>
          </g>
          <g id="Group_2103" data-name="Group 2103">
            <g id="Group_2102" data-name="Group 2102">
              <path id="Path_1587" data-name="Path 1587" d="M1069.6,1237.03c0,8.875-11.172,11.49-11.172,14.948v1.372h-11.176v-3.264c0-4.768,8.5-7.507,8.5-12.8a4.29,4.29,0,0,0-4.312-4.57c-3.531,0-4.25,2.739-4.25,5.483a16.776,16.776,0,0,0,.062,1.764H1035.24c-.066-.851-.2-1.632-.2-2.483,0-8.486,7.583-13.775,17.837-13.775C1062.872,1223.709,1069.6,1228.936,1069.6,1237.03Zm-10.192,32.38h-12.937v-12.077h12.937Z" fill="#fff"/>
            </g>
          </g>
        </g>
      </g>
    </g>
  </g>
</svg>
