<svg xmlns="http://www.w3.org/2000/svg" width="827" height="562" viewBox="0 0 827 562">
  <g id="doubts" transform="translate(-423.352 -186.594)">
    <path id="Path_787" data-name="Path 787" d="M1204.581,668.49V283.837c-44.972-35.784-82.073-49.913-115.447-45.578-16.11,2.092-31.509,7.95-47.6,10.423-13.079,2.013-78.338,8.41-122.621-15.077-27.606-14.642-112.047-55.535-219.223-17.314-26.652,9.505-43.434,23.749-68.261,37.788-25.492,14.414-72.757,13.195-107.171,8.2-14.065-2.042-49.523-1.5-59.258,36.682V668.49Z" fill="#ff7300" opacity="0.5"/>
    <ellipse id="Ellipse_7" data-name="Ellipse 7" cx="335.848" cy="17.215" rx="335.848" ry="17.215" transform="translate(491.536 714.163)" fill="#dfe5ea"/>
    <g id="Group_611" data-name="Group 611">
      <path id="Path_788" data-name="Path 788" d="M697.066,462.259l8.467,125.65,93.309,5.982-2.583-128.2Z" fill="#a1adc6"/>
      <path id="Path_789" data-name="Path 789" d="M790.22,459.038c-7.545-2.336-24.759,67.631-22.075,78.858,1.84,7.706,65.333,4.909,65.333,4.909l.668-13.424s-40.284-4.694-40.079-8.085,11.9-25.766,11.9-25.766S797.844,461.4,790.22,459.038Z" fill="#fed44e"/>
      <path id="Path_790" data-name="Path 790" d="M760.366,417.774l-17.105,2.739s4.808,15.632-2.566,28.973c0,0,12.3,13.7,20.873,10.073,9.167-3.87,5.749-13.386,5.749-13.386S757.981,438.569,760.366,417.774Z" fill="#f38b00"/>
      <path id="Path_791" data-name="Path 791" d="M740.486,390.8s26.655-3.14,28.5,1.469,2.246,17.583,3.974,20.322,4.851,6.018,3.685,7.785-2.453,1.335-3.19,3.321-.455,13.2-3.977,14.873-21.478.687-27.982-9.83S727.607,391.769,740.486,390.8Z" fill="#ffae02"/>
      <path id="Path_792" data-name="Path 792" d="M733.8,393.372l17.677,8.412s-.552,10.58,4.532,19.86c0,0-1.591,2.5-3.257,1.084s-2.742-2.183-3.132-4.82-1.931-9.72-6.564-6.228.26,7.642,2.62,8.672c0,0,3.745,13.8-3.378,12.817,0,0-6.575-4.284-12.237-20.857S729.391,390.264,733.8,393.372Z" fill="#002164"/>
      <path id="Path_793" data-name="Path 793" d="M776.709,387.343s6.32,9.344-8.371,15.6-35.82-10.213-35.82-10.213.54-8.2,12.26-11.708c8.757-2.622,16.965-2.251,21.434,2.961C773.806,392.843,776.709,387.343,776.709,387.343Z" fill="#002164"/>
      <g id="Group_592" data-name="Group 592">
        <g id="Group_591" data-name="Group 591">
          <rect id="Rectangle_83" data-name="Rectangle 83" width="5.098" height="138.053" transform="translate(713.595 600.623)" fill="#8494b4"/>
          <rect id="Rectangle_84" data-name="Rectangle 84" width="5.098" height="138.053" transform="translate(807.972 600.623)" fill="#8494b4"/>
        </g>
      </g>
      <rect id="Rectangle_85" data-name="Rectangle 85" width="126.827" height="18.064" transform="translate(699.919 587.909)" fill="#1e3b76"/>
      <path id="Path_794" data-name="Path 794" d="M742.537,444.878s-23.859,6.828-24.843,7.438c0,0,2.638,35.486,2.244,45.044s-4.137,50.464-4.137,50.464H789.95s-.889-41.622-.5-50.773c0,0-2.378-30.9.768-38.014,0,0-15.58-10.033-22.9-12.866,0,0,.111,10.06-5.1,12.8S742.537,444.878,742.537,444.878Z" fill="#fed44e"/>
      <path id="Path_795" data-name="Path 795" d="M789.452,497.051s-.181-4.248-.262-9.989a94.472,94.472,0,0,1-5.337,14.887c-4.838,10.275-16.808,24.487-29.541,22.973-12.778-1.519-22.97-13.189-26.16-25.923-2.4-9.585-1.22-20.046-4.358-29.4a39.232,39.232,0,0,0-5.622-10.564c.74,10.766,2.053,31.379,1.766,38.323-.394,9.556-4.137,50.464-4.137,50.464H789.95S789.06,506.2,789.452,497.051Z" fill="#ffc104"/>
      <g id="Group_593" data-name="Group 593">
        <path id="Path_796" data-name="Path 796" d="M788.533,540.525l-16.84-29.356s-4.016-2.428-4.042,2.607l19.441,27.9S791.573,547.365,788.533,540.525Z"/>
        <path id="Path_797" data-name="Path 797" d="M781.914,533.025c-1.3-1.879-2.856-5-5.606-6.455s-15.123,3.733-15.988,3.953c-.452.116-8.271,2.535-9.882,1.984a74.827,74.827,0,0,1-1.643,8.73c2.877,1.113,12.17-.744,13.332-.921a8.694,8.694,0,0,1,6.4,1.854c1.942,1.413,3.791,2.6,5.172,2.313,1.286-.264-.086-2.016-.868-2.958.019.023.046.049.067.074,3.443,4.293,5.227,3.648,5.907,2.746.865-1.144-3.731-5.146-4.176-5.695s-4.315-3.637-4.315-3.637c1.355.242,4.524,3.1,4.958,3.561s5.067,7.689,6.65,5.485-2.286-5.908-3.831-8.21-5.153-4.293-5.153-4.293c1.891-.258,5.118,3.4,6.2,4.681s3.891,7.348,6.126,5.819S783.217,534.9,781.914,533.025Zm-9.42,8.121a37.3,37.3,0,0,0-3.7-2.829A19.894,19.894,0,0,1,772.495,541.146Z" fill="#ffae02"/>
        <path id="Path_798" data-name="Path 798" d="M781.292,527.885s4.58,1.809,5.38,3.912-.459,3.36-1.545,2.867Z" fill="#ffae02"/>
      </g>
      <path id="Path_799" data-name="Path 799" d="M717.694,452.316s-7.833,5.642-11.529,12.8-23.857,61.557-21.174,72.784c1.84,7.706,65.333,4.909,65.333,4.909l.668-13.424s-40.284-4.694-40.079-8.085,11.905-25.766,11.905-25.766S729.2,468,717.694,452.316Z" fill="#fed44e"/>
      <path id="Path_800" data-name="Path 800" d="M820.25,716.578s21.258,5.886,30.052,8.782c7.309,2.407,6.376,9.155-1.46,12.284s-14.587,2.083-16.625-.379-6.455-1.109-8.09-.123S807.262,736,806.25,732.869s.46-15.616.46-15.616Z"/>
      <path id="Path_801" data-name="Path 801" d="M785.886,718.054s20.713,7.671,29.244,11.3c7.09,3.019,5.617,9.664-2.443,12.118s-14.7.836-16.538-1.792-6.346-1.651-8.054-.808-16.713-2.575-17.471-5.778,3.2-18.273,3.2-18.273Z"/>
      <path id="Path_802" data-name="Path 802" d="M832.25,590.573c-2.343-8.943-45.652-35.985-49.182-44.126H748.092c-3.539,5.317-7.979,14.354-9.258,27.509-2.223,22.842,18.314,15.012,38.671,15.775s28.567,13.635,29.1,19.345-3.1,109.369-3.1,109.369l27.64-.159S833.643,595.9,832.25,590.573Z" fill="#7270f5"/>
      <path id="Path_803" data-name="Path 803" d="M812.563,718.372s9.176-123.81,7.121-127.015c-6.316-9.854-36.993-33.025-47.529-43.779l-24.063-1.131c-3.539,5.317-7.979,14.354-9.258,27.509-2.223,22.842,18.314,15.012,38.671,15.775s28.567,13.635,29.1,19.345-3.1,109.369-3.1,109.369Z" fill="#353b9a"/>
      <path id="Path_804" data-name="Path 804" d="M814.594,593.467c-1.636-7.856-46.812-35.336-56.279-45.844L721.256,545c-4.525,5.211-9.054,13.354-8.979,22.049.188,21.936,16.269,27.224,36.631,27.851,23.476.723,35.532,3.83,35.5,9.567s-14.469,113.5-14.469,113.5l27.383,1.447S815.717,598.86,814.594,593.467Z" fill="#7270f5"/>
      <g id="Group_597" data-name="Group 597">
        <g id="Group_594" data-name="Group 594">
          <path id="Path_805" data-name="Path 805" d="M1010.545,421.387s6.292-10.842,8.56-16.694,11.388-26.136,14.3-24.01-5.255,19.142-5.255,19.142,7.2-21.3,11.1-20.118-6.659,21.02-6.659,21.02,8.682-18.7,10.954-16.895.483,5.969-6.984,19.805c0,0,6.371-11.877,8.779-9.093s-5.357,13.686-8.177,16.259-16.141,13.451-19.329,18.044C1017.833,428.847,1010.691,426.287,1010.545,421.387Z" fill="#ffae02"/>
          <path id="Path_806" data-name="Path 806" d="M1023.371,407.412s9.554-5.581,12.22-3.422-.028,4.419-9.93,7.706c0,0-3.5,4.567-5.729,4.923C1019.932,416.619,1017.178,410.359,1023.371,407.412Z" fill="#ffae02"/>
        </g>
        <path id="Path_807" data-name="Path 807" d="M825.116,412.032s-3.7-7.561-3.7-9.767,1.081-4.587,1.158-7.6,4.011-9.991,3.163-11.975-3.241-1.507-5.555,3.252-1.543,7.693-3.394,6.345-6.4-7.218-7.87-9.677-6.093-7.3-7.329-6.5-1.582,2.061,6.62,13.952c0,0-9.288-14.313-12.019-11.731-1.91,1.8,7.158,12.28,8.469,13.946,0,0-8.4-10.833-10.9-8.275-2.352,2.4,9.2,11.419,9.2,11.419s-8.622-7.017-9.778-4.956,3.856,6.622,8.794,9.476,6.206,3.61,7.462,5.512,4.341,9.518,4.341,9.518S821.645,416.95,825.116,412.032Z" fill="#ffae02"/>
        <path id="Path_808" data-name="Path 808" d="M929,363.042,911.441,365.8s-1,33.706-14.889,36.4c0,0-4.937,55.2,13.424,50.6s28.235-52.5,28.235-52.5S922.022,395.692,929,363.042Z" fill="#f38b00"/>
        <path id="Path_809" data-name="Path 809" d="M930.37,337.927s-18.944-8.02-26.466-3.151-6.9,21.659-8.026,29.356c-1.752,12.027,3.292,23.769,6.355,24.915s26.745-5.442,30.5-23.054S934.827,340.933,930.37,337.927Z" fill="#ffae02"/>
        <path id="Path_810" data-name="Path 810" d="M901.6,705.414s2.557,16.2.656,19.961c-2.005,3.966-41.9,2.054-44.288-.616s1.59-7.321,3.678-8.4,23.768-10.844,23.768-10.844Z"/>
        <path id="Path_811" data-name="Path 811" d="M953.214,705.414H939.289s-.924,12.031,0,14.727,14.079,19.4,20.868,19.4c3.7,0,8.272.018,8.988-3.371.6-2.824-2.114-8.775-4.358-11.968C959.848,717.172,953.214,705.414,953.214,705.414Z"/>
        <path id="Path_812" data-name="Path 812" d="M926.957,368.535s-6.789,3.865-11.177,4.188-7.09-5.028-13.267-3.651-6.965,1.6-6.965,1.6-3.272,22.776,5.084,22.132,22.564-9.666,27.58-15.787a10.886,10.886,0,0,0,8.566-5.263c3.343-5.263,7.835-21.587,4.91-31.466s-15.88-13.747-21.311-9.129c0,0-4.144-3.545-12.014-3.115s-9.5,4.725-12.845,7.3-6.617,2.578-7.731.358c0,0-2.367,4.081,1.88,11.1s9.155,5.942,15.77,4.367,14.835-8.306,14.835-8.306-.348,14.033,3.065,19.187c0,0,1.253.573,1.74,0s.141-7.876,3.97-6.228S930.37,365.778,926.957,368.535Z" fill="#002164"/>
        <path id="Path_813" data-name="Path 813" d="M901.051,375.3a20.462,20.462,0,0,0,10.446.5s-3.083,4.17-6.478,3.579A4.527,4.527,0,0,1,901.051,375.3Z" fill="#fff"/>
        <path id="Path_814" data-name="Path 814" d="M932.938,395.22l-16.244,9.034-12.629-7.794a121.555,121.555,0,0,0-4.582,42.379c1.852,22.523,5.4,38.7,20.212,17.766S940.008,402.516,932.938,395.22Z" fill="#fff"/>
        <path id="Path_815" data-name="Path 815" d="M932.938,395.22l-16.244,9.034-12.629-7.794a121.555,121.555,0,0,0-4.582,42.379c1.852,22.523,5.4,38.7,20.212,17.766S940.008,402.516,932.938,395.22Z" fill="#8494b4"/>
        <path id="Path_816" data-name="Path 816" d="M913.639,414.57s-8.722,48.556-7.984,49.488c.478-.622,5.789,13.167,8.858,0,2.387-10.248,2.678-48.37,3.06-48.834,0,0,4.555-5.039,7.218-7.523,1.745-1.63,3.434-3.3,5.067-5.026.425-.793.836-1.594,1.2-2.448q-.359.867-.714,1.736a41.249,41.249,0,0,1,3.434-5.66,6.854,6.854,0,0,0-.837-1.084l-16.244,9.035-12.629-7.794s-.374,1.167-.91,3.211c1.327,1.9,2.527,3.825,3.562,5.668C908.045,407.7,913.639,414.57,913.639,414.57Z" fill="#1d3b66"/>
        <path id="Path_817" data-name="Path 817" d="M880.328,485.595l49.843-.967s7.58,12.775,9.278,49.645c1.162,25.244,2.165,32.232,4.606,65.6,1.657,22.653,9.474,109.472,9.474,109.472H927.04s-11.214-99.072-11.785-104.469c-.2-1.908-6.763-54.29-6.763-54.29s1.074,47.448,1.074,52.966,1.158,102.994,1.158,102.994h-27.9s-3.135-82.88-3.4-101.851C878.991,573.985,876.437,495.512,880.328,485.595Z" fill="#002152"/>
        <path id="Path_818" data-name="Path 818" d="M904.065,396.46s-17.541,3.491-24.33,5.8c0,0,2.16,41.649-4.629,52.117l-3.084,90.729s38.416-.477,39.652-49.647,1.156-51.391,1.156-51.391Z" fill="#1d3b66"/>
        <g id="Group_596" data-name="Group 596">
          <g id="Group_595" data-name="Group 595">
            <path id="Path_819" data-name="Path 819" d="M909.5,449.747a1.476,1.476,0,1,1-1.446-1.545A1.5,1.5,0,0,1,909.5,449.747Z" fill="#002152"/>
            <path id="Path_820" data-name="Path 820" d="M908.555,464.642a1.476,1.476,0,1,1-1.448-1.545A1.5,1.5,0,0,1,908.555,464.642Z" fill="#002152"/>
            <path id="Path_821" data-name="Path 821" d="M907.613,479.535a1.476,1.476,0,1,1-1.448-1.545A1.5,1.5,0,0,1,907.613,479.535Z" fill="#002152"/>
            <path id="Path_822" data-name="Path 822" d="M906.671,494.43a1.476,1.476,0,1,1-1.448-1.545A1.494,1.494,0,0,1,906.671,494.43Z" fill="#002152"/>
          </g>
        </g>
        <path id="Path_823" data-name="Path 823" d="M956.878,406.733l-23.94-11.513-20.109,48.852-2.346,57.215s-1.434,50.018,40.225,43.822l-3.388-92.042S947,419.355,956.878,406.733Z" fill="#1d3b66"/>
        <path id="Path_824" data-name="Path 824" d="M1023.84,427.1l-14.5-10.786s-26.845,43.566-28.388,42.245-14.351-47.154-24.07-51.828c0,0-4.91,3.612-7.714,14.183-1.984,7.478-2.272,19.534-1.845,31.423,0,0,25.3,38.525,34.246,37.257S1023.84,427.1,1023.84,427.1Z" fill="#1d3b66"/>
        <path id="Path_825" data-name="Path 825" d="M825.854,406.733l-16.422,6.728s22.473,83.491,35.432,76.164,30.177-33.341,30.177-33.341a63.03,63.03,0,0,0,6.664-20.776c1.661-11.153.634-26.441-1.972-33.244,0,0-11.416,7.146-20.982,26.776s-12.492,25.253-13.344,24.028S825.854,406.733,825.854,406.733Z" fill="#1d3b66"/>
        <path id="Path_826" data-name="Path 826" d="M916.693,402.992l-11.3-8.854-1.949,4.427,3.594,14.081,9.65-7.433,8.692,8.356,8.293-18.348-2.768-4.53Z" fill="#fff"/>
      </g>
      <g id="Group_598" data-name="Group 598">
        <rect id="Rectangle_86" data-name="Rectangle 86" width="84.537" height="5.292" transform="translate(796.353 538.604)" fill="#919191"/>
        <rect id="Rectangle_87" data-name="Rectangle 87" width="96.803" height="71.825" rx="5.115" transform="translate(790.22 469.425)" fill="#8494b4"/>
        <path id="Path_827" data-name="Path 827" d="M792.95,536.064V474.612a5.117,5.117,0,0,1,5.044-5.187h-4.466a5.117,5.117,0,0,0-5.046,5.187v61.452a5.117,5.117,0,0,0,5.046,5.185h4.466A5.116,5.116,0,0,1,792.95,536.064Z" fill="#919191"/>
        <path id="Path_828" data-name="Path 828" d="M843.476,505.337a4.858,4.858,0,1,1-4.856-4.992A4.927,4.927,0,0,1,843.476,505.337Z" fill="#e0e0e0"/>
      </g>
      <g id="Group_600" data-name="Group 600">
        <g id="Group_599" data-name="Group 599">
          <rect id="Rectangle_88" data-name="Rectangle 88" width="63.68" height="9.36" transform="translate(934.289 534.538)" fill="#002164"/>
          <path id="Path_829" data-name="Path 829" d="M917.07,473.774,937.7,539.553l3.223-1.216-20.631-65.779Z" fill="#002164"/>
        </g>
      </g>
      <path id="Path_830" data-name="Path 830" d="M1031.2,703.988s-16.954,8.586-26.04,12.452c-7.552,3.212-5.986,10.289,2.6,12.907s15.659.894,17.611-1.9,6.757-1.758,8.576-.858,16.142-2.5,16.949-5.906-2.745-18.44-2.745-18.44Z"/>
      <path id="Path_831" data-name="Path 831" d="M1119.574,542.145l-28.812.388s-70.491,27.034-79.7,34.133S1026.2,707.5,1026.2,707.5l23.917-2.575s-5.64-110.711-1.037-115.443S1128.3,577.745,1133,576.3C1137.606,574.876,1131.042,557.876,1119.574,542.145Z" fill="#9070cf"/>
      <path id="Path_832" data-name="Path 832" d="M1119.574,542.145l-28.812.388s-70.491,27.034-79.7,34.133S1026.2,707.5,1026.2,707.5l23.917-2.575s-5.64-110.711-1.037-115.443S1128.3,577.745,1133,576.3C1137.606,574.876,1131.042,557.876,1119.574,542.145Z" fill="#6d43af"/>
      <g id="Group_603" data-name="Group 603">
        <path id="Path_833" data-name="Path 833" d="M1178.046,476.118l-29.263,120.271-12.112-3.115,25.167-121.324Z" fill="#a1adc6"/>
        <g id="Group_602" data-name="Group 602">
          <g id="Group_601" data-name="Group 601">
            <rect id="Rectangle_89" data-name="Rectangle 89" width="4.848" height="131.269" transform="translate(1044.508 599.89)" fill="#8494b4"/>
            <rect id="Rectangle_90" data-name="Rectangle 90" width="4.848" height="131.269" transform="translate(1134.247 599.89)" fill="#8494b4"/>
          </g>
        </g>
        <rect id="Rectangle_91" data-name="Rectangle 91" width="120.595" height="17.176" transform="translate(1031.504 587.801)" fill="#1e3b76"/>
      </g>
      <path id="Path_834" data-name="Path 834" d="M1111.9,416.008l-16.536,3.628s4.757,20.9,0,32.42c0,0,9.016,3.642,24.209-8.19C1119.574,443.866,1110.212,435.729,1111.9,416.008Z" fill="#f38b00"/>
      <path id="Path_835" data-name="Path 835" d="M1114.613,391.735s-18.4-7.126-23.327-4.522-10.931,6.441-10,10.278,1.633,15.175.432,18.738-3.265,6.031-2.766,7.265,3.4.262,4.2,1.774,5.1,11.484,7.6,12.924,16.764-3.733,23.362-19.664S1118.713,394.442,1114.613,391.735Z" fill="#ffae02"/>
      <path id="Path_836" data-name="Path 836" d="M1010.559,705.895s-22.139,7.939-31.262,11.713c-7.58,3.138-6.083,10.23,2.476,12.933s15.648,1.053,17.629-1.725,6.773-1.689,8.583-.771,16.165-2.334,17.005-5.736-1.2-13.372-1.2-13.372Z"/>
      <path id="Path_837" data-name="Path 837" d="M1103.717,386.047s6.3-7.194,13.4-2.979,4.318,10.924,5.8,13.876c3.434,6.839,2.9,12.607-.559,18.877-3.852,6.983-1.536,11.512-7.916,12.232s-8.322-1.2-8.322-1.2a25.835,25.835,0,0,0,2.5-10.279s5.466-3.117,4.733-7.982-6.532-5.482-8.065-.479,1.2,8.427-2.4,10.826c0,0-2.134.616-2.134-4.934a54.631,54.631,0,0,1,1-10.222s-12.917,7.046-22.871,0-3.077-18.136,4.155-20.667A23.254,23.254,0,0,1,1103.717,386.047Z" fill="#002164"/>
      <path id="Path_838" data-name="Path 838" d="M1127.543,537.762l-32.177,6.589s-73.11,27.146-82.319,34.245-10.854,128.9-10.854,128.9l24,2.383s10.274-115.784,15.893-119.165c4.845-2.916,83.5-2.916,88.409-2.916C1137.581,587.8,1143.685,554.507,1127.543,537.762Z" fill="#9070cf"/>
      <path id="Path_839" data-name="Path 839" d="M993.983,529.2s-4.851.607-5.882.594-14.343-8.3-15.8-7.207-15.169,11.166-14.777,13.173,4.209.849,11.5-5.644c0,0-9.7,7.225-7.861,9.028s10.306-6.322,10.306-6.322-8.731,6.86-6.685,8.445,9.759-6.631,9.759-6.631-6.044,6.157-5.23,7.207,4.611-.687,8.777-4.79c0,0,.761-.435,2.946.853s15.678-.994,15.678-.994Z" fill="#ffae02"/>
      <path id="Path_840" data-name="Path 840" d="M990.538,525.126l4.105,15.854s66.586-15.457,73.318-20.588,47.056-50.014,41.139-62.515-13.587-9.426-18.409-2.325-27.831,37.388-31.119,40.939S990.538,525.126,990.538,525.126Z" fill="#7ae5c9"/>
      <path id="Path_841" data-name="Path 841" d="M1001.5,536.595s-5.1.607-6.177.594-15.065-8.3-16.594-7.207-15.931,11.164-15.52,13.173,4.422.849,12.081-5.646c0,0-10.186,7.227-8.258,9.03s10.826-6.322,10.826-6.322-9.17,6.86-7.023,8.445,10.251-6.633,10.251-6.633-6.35,6.159-5.494,7.207,4.844-.685,9.22-4.788c0,0,.8-.435,3.095.853s16.467-.994,16.467-.994Z" fill="#ffae02"/>
      <path id="Path_842" data-name="Path 842" d="M1118.348,442.67s-14.91,7.764-23.339,7.274c0,0-13.647,29.486-14.568,37.374S1082,546.667,1082,546.667s33.019,7.373,52.485-2.723c0,0-5.244-33.594-3.095-50.317S1131.836,455.066,1118.348,442.67Z" fill="#7ae5c9"/>
      <path id="Path_843" data-name="Path 843" d="M1111.968,497.477c3.3-7.818,16.207-20.418,9.71-29.2-5.227-7.061-8.972-7.545-14.713-.817-5.381,6.3-10.3,13.1-16.409,18.665a104.778,104.778,0,0,1-10.318,7.76c0,16.21,1.765,52.778,1.765,52.778a129.9,129.9,0,0,0,23.531,2.582C1098.669,533.854,1105.044,513.89,1111.968,497.477Z" fill="#006b98" opacity="0.32" style="mix-blend-mode: multiply;isolation: isolate"/>
      <path id="Path_844" data-name="Path 844" d="M997.879,532.517l4.313,15.854s69.94-15.457,77.01-20.588,49.427-50.014,43.211-62.516-14.271-9.424-19.336-2.323-29.234,37.388-32.687,40.939S997.879,532.517,997.879,532.517Z" fill="#7ae5c9"/>
      <g id="Group_604" data-name="Group 604">
        <path id="Path_845" data-name="Path 845" d="M665.56,450.266s4.612-9.6,6.148-14.7,7.919-22.88,10.52-21.283-3.192,16.544-3.192,16.544,4.7-18.5,8.068-17.773-4.257,18.23-4.257,18.23,6.118-16.407,8.156-15.039.8,5.012-4.61,17.225c0,0,4.61-10.481,6.826-8.295s-3.634,11.941-5.851,14.309-12.766,12.486-15.16,16.588C672.211,456.067,666.005,454.4,665.56,450.266Z" fill="#ffae02"/>
        <path id="Path_846" data-name="Path 846" d="M675.49,437.566s7.713-5.377,10.107-3.736.265,3.736-7.891,7.2c0,0-2.659,4.1-4.52,4.557C673.186,445.586,670.448,440.484,675.49,437.566Z" fill="#ffae02"/>
      </g>
      <path id="Path_847" data-name="Path 847" d="M664.785,445.371S637.415,492.69,636,492.359s-41.137-12.672-54.766-23.126c-3.865-2.963-3.856,29.4,0,31.385s61.7,12.555,64.272,10.9,31.936-58.435,31.936-58.435Z" fill="#7270f5"/>
      <path id="Path_848" data-name="Path 848" d="M649.508,503.113c-19.743,13.041-65.982-24.579-71.307-25.844-.793,8.86.492,22.044,3.03,23.348,3.856,1.984,61.7,12.555,64.272,10.9.652-.419,3.04-4.41,6.223-10.094A21.817,21.817,0,0,1,649.508,503.113Z" fill="#353b9a"/>
      <path id="Path_849" data-name="Path 849" d="M581.681,448.663c-1.743-.374-10.107-18.51-13.687-22.038-1.714,12.387-9,41.763-9,41.763,8.838,9.746,26.464,3.772,26.464,3.772C582.566,465.719,581.178,452.871,581.681,448.663Z" fill="#f38b00"/>
      <path id="Path_850" data-name="Path 850" d="M578.176,400.163s17.149,3.968,20.438,9.109,3.276,18.523,5.091,22.057c1.1,2.143,2.084,3.868,2.634,5.124.482,1.1-.735,1.749-2.227,2.291a2.641,2.641,0,0,0-1.6,1.706c-1.016,3.238-3.849,11.5-6.684,12.643-3.538,1.433-21.009.882-26.262-14.766S567.189,396.808,578.176,400.163Z" fill="#ffae02"/>
      <path id="Path_851" data-name="Path 851" d="M646.8,705.564l-11.518-1.955s-.585,11.252-1.545,13.831c0,0,12.919,6.353,26.163,1.326,0,0-8.443-3.74-10.655-6.394S646.8,705.564,646.8,705.564Z" fill="#ffae02"/>
      <path id="Path_852" data-name="Path 852" d="M634.749,712.148s8.754,6.262,22.343,5.25c0,0,16.532,9.1,17.6,11.373,1.49,3.187-5.752,3.388-17.053,3.006-9.638-.325-8.931-1.07-10.865-3.014s-4.348-4.107-4.348-4.107-.886,1.225-1.882,6.885l-4.307-.638s.5-5.442-1.576-8.34C633.2,720.524,631.522,715.779,634.749,712.148Z"/>
      <path id="Path_853" data-name="Path 853" d="M600.352,702.655l-8.7-2.443s-5.105,8.754-6.6,11.05c0,0,11.23,9.137,25.228,7.249,0,0-7.429-5.568-9.014-8.661S600.352,702.655,600.352,702.655Z" fill="#ffae02"/>
      <path id="Path_854" data-name="Path 854" d="M586.022,709.2s8.156,7.066,21.777,7.348c0,0,15.647,10.624,16.5,12.994,1.2,3.314-6.03,2.826-17.248,1.375-9.569-1.238-8.8-1.91-10.548-4.031s-3.961-4.5-3.961-4.5-.991,1.136-2.492,6.679l-4.232-1.044s.988-5.371-.821-8.455C583.726,717.393,582.484,712.507,586.022,709.2Z"/>
      <path id="Path_855" data-name="Path 855" d="M560.224,539.235l22.713,16.526s73.68,14.6,83.029,21.805-59.483,135.006-59.483,135.006l-21.429-7.315S636.478,592.1,631.8,587.3s-80.44-11.915-85.214-13.388C541.915,572.468,548.581,555.206,560.224,539.235Z" fill="#7ae5c9"/>
      <path id="Path_856" data-name="Path 856" d="M560.224,539.235l22.713,16.526s73.68,14.6,83.029,21.805-59.483,135.006-59.483,135.006l-21.429-7.315S636.478,592.1,631.8,587.3s-80.44-11.915-85.214-13.388C541.915,572.468,548.581,555.206,560.224,539.235Z" fill="#42c395"/>
      <path id="Path_857" data-name="Path 857" d="M553.247,546.738l29.69,2.571s76.1,19.728,85.451,26.935S654.75,711.277,654.75,711.277L631.5,705.23s13.111-113.244,7.4-116.679c-4.919-2.961-84.783-2.961-89.767-2.961C541.939,585.59,536.857,563.741,553.247,546.738Z" fill="#7ae5c9"/>
      <path id="Path_858" data-name="Path 858" d="M561.626,462.259a212.1,212.1,0,0,0,23.548,9.187s13.849,28.107,14.784,35.95,6.958,50.677,6.958,50.677-42.729,12.645-62.492,2.605c0,0,5.982-30.384,3.8-47.009S547.93,474.583,561.626,462.259Z" fill="#7270f5"/>
      <path id="Path_859" data-name="Path 859" d="M566.93,510.078c.046,14.067,8.847,20.954,17.9,30.053a60.809,60.809,0,0,1,13.557,20.123c4.851-1.465,8.529-2.181,8.529-2.181s-3.228-22.953-5.325-38.332c-9.081-4.174-13.9-13.1-17.142-22.6-1.877-5.5-2.9-9.053-6.29-13.146-10.051.28-10.663,12.371-11.232,23.668C566.927,508.48,566.927,509.292,566.93,510.078Z" fill="#353b9a"/>
      <g id="Group_607" data-name="Group 607">
        <path id="Path_860" data-name="Path 860" d="M499.739,472.192,529.452,594.31l12.3-3.163L516.2,467.96Z" fill="#a1adc6"/>
        <g id="Group_606" data-name="Group 606">
          <g id="Group_605" data-name="Group 605">
            <rect id="Rectangle_92" data-name="Rectangle 92" width="4.922" height="133.285" transform="translate(630.407 597.865)" fill="#8494b4"/>
            <rect id="Rectangle_93" data-name="Rectangle 93" width="4.922" height="133.285" transform="translate(539.289 597.865)" fill="#8494b4"/>
          </g>
        </g>
        <rect id="Rectangle_94" data-name="Rectangle 94" width="122.447" height="17.441" transform="translate(526.085 585.59)" fill="#1e3b76"/>
      </g>
      <path id="Path_861" data-name="Path 861" d="M600.684,415.02c5.543-2.231,3.058-11.066-.738-13.787-6.678-4.786-15.353-8.338-23.576-8.168-10.04.21-19.223,8.2-25.051,15.937-4.228,5.612-3.94,11.559-6.991,17.6-2.777,5.5-8.779,8.25-12.38,13.2-3.383,4.651-3.4,10.71-2.081,16.188,1.033,4.275,2.193,8.159,1.51,12.555-.851,5.462-5.109,9.482-6.555,14.754-1.308,4.764-.726,10.13-.248,14.987a20.5,20.5,0,0,0,8.749,15.263c10.539,7.191,24.8-1.523,26.423-13.617.736-5.478-.822-10.277-1.341-15.529-.657-6.676,1.587-10.5,7.047-14.125,4.608-3.062,6.789-5.057,6.434-10.983-.243-4.031-.687-8.136.051-12.141.845-4.576,2.721-5.456-.773-8.813-2.446-2.349-4.5-4.882-2.561-8.43,1.582-2.885,4.121-3.733,6.315-1.023.573.708,3.462,6.678,4.2,3.319.207-.939-1.014-2.757-1.128-3.8a4.254,4.254,0,0,1,1.165-3.794c1.729-1.883,4.281-2.893,6.065-4.791,2.234-2.376,2.522-5.512,5.754-6.822a8.157,8.157,0,0,1,5.162-.226C596.9,412.986,600.159,415.233,600.684,415.02Z" fill="#002164"/>
      <g id="Group_609" data-name="Group 609">
        <g id="Group_608" data-name="Group 608">
          <rect id="Rectangle_95" data-name="Rectangle 95" width="63.68" height="9.36" transform="translate(683.65 534.538)" fill="#002164"/>
          <path id="Path_862" data-name="Path 862" d="M764.549,473.774l-20.631,65.779-3.224-1.216,20.631-65.779Z" fill="#002164"/>
        </g>
      </g>
      <g id="Group_610" data-name="Group 610">
        <rect id="Rectangle_96" data-name="Rectangle 96" width="4.238" height="192.456" transform="translate(654.532 543.897)" fill="#7695a8"/>
        <rect id="Rectangle_97" data-name="Rectangle 97" width="4.238" height="192.456" transform="translate(1075.348 543.897)" fill="#7695a8"/>
        <rect id="Rectangle_98" data-name="Rectangle 98" width="425.053" height="5.102" transform="translate(654.532 543.895)" fill="#7695a8"/>
      </g>
      <path id="Path_863" data-name="Path 863" d="M676.024,531.263s5.518-.379,6.663-.611,14.394-11.831,16.221-10.976,19.014,8.634,18.961,10.848-4.527,1.789-13.882-3.557c0,0,12.172,5.614,10.471,7.914s-12.678-4.528-12.678-4.528,11.028,5.431,9.051,7.541-12.128-4.97-12.128-4.97,7.9,5.252,7.2,6.537-5.265.247-10.687-3.225c0,0-.93-.3-3.118,1.527s-17.648,2.257-17.648,2.257Z" fill="#ffae02"/>
      <path id="Path_864" data-name="Path 864" d="M679.638,528.093l-.151,15.112s-51.522,3.225-65.984-1.731-44.947-44.937-47.553-51.635c-3.134-8.054,8.8-27.628,20.606-9.789s33.214,41.848,34.42,42.592S679.638,528.093,679.638,528.093Z" fill="#7270f5"/>
    </g>
    <g id="Group_616" data-name="Group 616">
      <g id="Group_614" data-name="Group 614">
        <g id="Group_613" data-name="Group 613">
          <g id="Group_612" data-name="Group 612">
            <path id="Path_865" data-name="Path 865" d="M750.88,315.218H813.8l33.733,28.317-15.165-28.317h15.457a4.916,4.916,0,0,0,4.847-4.983V246.042a4.917,4.917,0,0,0-4.847-4.983H750.88a4.917,4.917,0,0,0-4.849,4.983v64.193A4.916,4.916,0,0,0,750.88,315.218Z" fill="#7270f5"/>
          </g>
        </g>
      </g>
      <g id="Group_615" data-name="Group 615">
        <path id="Path_866" data-name="Path 866" d="M814.626,268.216c0,8.3-10.16,10.748-10.16,13.984v1.283H794.3V280.43c0-4.459,7.727-7.025,7.727-11.971,0-2.26-1.431-4.275-3.921-4.275-3.211,0-3.865,2.564-3.865,5.129a15.7,15.7,0,0,0,.058,1.651h-10.93c-.06-.8-.179-1.529-.179-2.323,0-7.939,6.895-12.886,16.223-12.886C808.5,255.755,814.626,260.641,814.626,268.216Zm-9.271,30.292H793.594v-11.3h11.761Z" fill="#fff"/>
      </g>
    </g>
    <g id="Group_622" data-name="Group 622">
      <g id="Group_619" data-name="Group 619">
        <g id="Group_618" data-name="Group 618">
          <g id="Group_617" data-name="Group 617">
            <path id="Path_867" data-name="Path 867" d="M1074.083,335.461H1050.97l14.685,21.025-28.473-21.025H1002.1a3.651,3.651,0,0,1-3.6-3.7V284.1a3.651,3.651,0,0,1,3.6-3.7h71.978a3.649,3.649,0,0,1,3.6,3.7v47.663A3.649,3.649,0,0,1,1074.083,335.461Z" fill="#a6eedb"/>
          </g>
        </g>
      </g>
      <g id="Group_621" data-name="Group 621">
        <g id="Group_620" data-name="Group 620">
          <path id="Path_868" data-name="Path 868" d="M1028.318,320.676h-8.743v-8.437h8.743Z" fill="#002164"/>
          <path id="Path_869" data-name="Path 869" d="M1042.053,320.676h-8.743v-8.437h8.743Z" fill="#002164"/>
          <path id="Path_870" data-name="Path 870" d="M1055.791,320.676h-8.743v-8.437h8.743Z" fill="#002164"/>
        </g>
      </g>
    </g>
    <g id="Group_628" data-name="Group 628">
      <g id="Group_625" data-name="Group 625">
        <g id="Group_624" data-name="Group 624">
          <g id="Group_623" data-name="Group 623">
            <path id="Path_871" data-name="Path 871" d="M677.416,366.95H654.306l-30.738,27.784,16.951-27.784H605.438a3.651,3.651,0,0,1-3.6-3.7V315.587a3.651,3.651,0,0,1,3.6-3.7h71.978a3.651,3.651,0,0,1,3.6,3.7V363.25A3.651,3.651,0,0,1,677.416,366.95Z" fill="#c788ff"/>
          </g>
        </g>
      </g>
      <g id="Group_627" data-name="Group 627">
        <g id="Group_626" data-name="Group 626">
          <path id="Path_872" data-name="Path 872" d="M631.654,352.164h-8.743v-8.437h8.743Z" fill="#002164"/>
          <path id="Path_873" data-name="Path 873" d="M645.388,352.164h-8.743v-8.437h8.743Z" fill="#002164"/>
          <path id="Path_874" data-name="Path 874" d="M659.126,352.164h-8.743v-8.437h8.743Z" fill="#002164"/>
        </g>
      </g>
    </g>
    <path id="Path_875" data-name="Path 875" d="M717.259,273.391h-7V266.2h-3.937v7.193h-7v4.047h7v7.193h3.937v-7.193h7Z" fill="#fff9fd"/>
    <path id="Path_876" data-name="Path 876" d="M695.487,200.342h-7v-7.193h-3.937v7.193h-7v4.047h7v7.193h3.937v-7.193h7Z" fill="#ff7300" opacity="0.5"/>
    <path id="Path_877" data-name="Path 877" d="M793.074,339.9h-7v-7.193H782.14V339.9h-7v4.047h7v7.193h3.937v-7.193h7Z" fill="#fff9fd"/>
    <path id="Path_878" data-name="Path 878" d="M548.009,373.276h-7v-7.193h-3.937v7.193h-7v4.047h7v7.193h3.937v-7.193h7Z" fill="#fff9fd"/>
    <path id="Path_879" data-name="Path 879" d="M964.165,306.9h-7v-7.193h-3.937V306.9h-7v4.047h7v7.193h3.937v-7.193h7Z" fill="#fff9fd"/>
    <path id="Path_880" data-name="Path 880" d="M1146.734,358.391h-7V351.2H1135.8v7.193h-7v4.047h7v7.193h3.937v-7.193h7Z" fill="#fff9fd"/>
    <path id="Path_881" data-name="Path 881" d="M1250.351,382.473h-7V375.28h-3.937v7.193h-7v4.047h7v7.193h3.937V386.52h7Z" fill="#ff7300" opacity="0.5"/>
    <g id="Group_629" data-name="Group 629">
      <path id="Path_882" data-name="Path 882" d="M570.292,307.91c0,5.969-7.3,7.726-7.3,10.053v.921h-7.3v-2.2c0-3.205,5.553-5.05,5.553-8.605a2.85,2.85,0,0,0-2.817-3.073c-2.307,0-2.779,1.845-2.779,3.688a11.149,11.149,0,0,0,.042,1.187h-7.856c-.044-.573-.13-1.1-.13-1.669,0-5.707,4.956-9.263,11.661-9.263C565.892,298.952,570.292,302.465,570.292,307.91Zm-6.664,21.775h-8.455v-8.121h8.455Z" fill="#fff"/>
    </g>
    <g id="Group_630" data-name="Group 630" opacity="0.5">
      <path id="Path_883" data-name="Path 883" d="M598.6,206.162c0,5.971-7.3,7.727-7.3,10.054v.921H584v-2.2c0-3.205,5.555-5.05,5.555-8.605a2.851,2.851,0,0,0-2.819-3.073c-2.308,0-2.777,1.845-2.777,3.688a11.634,11.634,0,0,0,.04,1.187h-7.856c-.044-.573-.128-1.1-.128-1.669,0-5.707,4.954-9.263,11.661-9.263C594.2,197.206,598.6,200.719,598.6,206.162Zm-6.663,21.777h-8.455v-8.121h8.455Z" fill="#ff7300"/>
    </g>
    <g id="Group_631" data-name="Group 631" opacity="0.5">
      <path id="Path_884" data-name="Path 884" d="M1248.752,447.2c0,5.969-7.3,7.726-7.3,10.053v.921h-7.3v-2.2c0-3.205,5.553-5.05,5.553-8.6a2.85,2.85,0,0,0-2.817-3.075c-2.307,0-2.779,1.845-2.779,3.689a11.132,11.132,0,0,0,.042,1.185h-7.856c-.044-.571-.13-1.1-.13-1.669,0-5.707,4.956-9.263,11.661-9.263C1244.352,438.246,1248.752,441.758,1248.752,447.2Zm-6.664,21.775h-8.455v-8.121h8.455Z" fill="#ff7300"/>
    </g>
    <g id="Group_632" data-name="Group 632" opacity="0.5">
      <path id="Path_885" data-name="Path 885" d="M1000.38,186.594v13.074l-1.369,9.111h-4.585l-1.369-9.111V186.594Zm-.308,27.919a3.509,3.509,0,1,1-3.526-3.588A3.408,3.408,0,0,1,1000.073,214.513Z" fill="#ff7300"/>
    </g>
    <g id="Group_633" data-name="Group 633" opacity="0.5">
      <path id="Path_886" data-name="Path 886" d="M430.675,402v13.072l-1.369,9.111h-4.585l-1.369-9.111V402Zm-.308,27.918a3.509,3.509,0,1,1-3.525-3.588A3.408,3.408,0,0,1,430.367,429.92Z" fill="#ff7300"/>
    </g>
    <g id="Group_635" data-name="Group 635">
      <g id="Group_634" data-name="Group 634">
        <path id="Path_887" data-name="Path 887" d="M485.365,570.112H479.6v-5.559h5.761Z" fill="#fff"/>
        <path id="Path_888" data-name="Path 888" d="M494.416,570.112h-5.761v-5.559h5.761Z" fill="#fff"/>
        <path id="Path_889" data-name="Path 889" d="M503.467,570.112h-5.761v-5.559h5.761Z" fill="#fff"/>
      </g>
    </g>
    <g id="Group_636" data-name="Group 636" opacity="0.5">
      <path id="Path_890" data-name="Path 890" d="M1178.047,243.84h-5.761V238.28h5.761Z" fill="#ff7300"/>
      <path id="Path_891" data-name="Path 891" d="M1187.1,243.84h-5.761V238.28h5.761Z" fill="#ff7300"/>
      <path id="Path_892" data-name="Path 892" d="M1196.148,243.84h-5.761V238.28h5.761Z" fill="#ff7300"/>
    </g>
    <g id="Group_638" data-name="Group 638">
      <g id="Group_637" data-name="Group 637">
        <path id="Path_893" data-name="Path 893" d="M1158.164,429.519H1152.4V423.96h5.761Z" fill="#fff"/>
        <path id="Path_894" data-name="Path 894" d="M1167.214,429.519h-5.761V423.96h5.761Z" fill="#fff"/>
        <path id="Path_895" data-name="Path 895" d="M1176.266,429.519h-5.761V423.96h5.761Z" fill="#fff"/>
      </g>
    </g>
  </g>
</svg>
