<svg xmlns="http://www.w3.org/2000/svg" xmlns:xlink="http://www.w3.org/1999/xlink" width="832" height="570.997" viewBox="0 0 832 570.997">
  <defs>
    <linearGradient id="linear-gradient" x1="0.5" y1="-0.011" x2="0.5" y2="0.996" gradientUnits="objectBoundingBox">
      <stop offset="0" stop-color="#fff"/>
      <stop offset="1" stop-color="#fff" stop-opacity="0"/>
    </linearGradient>
  </defs>
  <g id="online" transform="translate(-435.34 -193.408)">
    <g id="Group_578" data-name="Group 578">
      <path id="Path_721" data-name="Path 721" d="M471.588,761.712s-88.578-103.342,11.2-215.8c80.43-90.647,54.748-125.7,51.041-186.831-3.139-51.742,55.475-128.25,143.189-132.067C820.792,220.752,856.533,267,932.867,263.73s110.856-30.021,199.518-19.478c164.521,19.56,142.347,175.651,118.37,292.324s48.068,156.508-3.777,225.228" fill="#ff6700" opacity="0.6"/>
      <line id="Line_2" data-name="Line 2" x2="816.753" transform="translate(442.964 762.411)" fill="none" stroke="#5730a0" stroke-linecap="round" stroke-linejoin="round" stroke-width="3.991"/>
      <path id="Path_722" data-name="Path 722" d="M1016.235,366.732l9.639-6.326a12.821,12.821,0,0,0,6.936,2.035h46.436a12.908,12.908,0,0,0,12.9-12.915V334.906a12.91,12.91,0,0,0-12.9-12.917H1032.81a12.91,12.91,0,0,0-12.9,12.917v14.621a12.867,12.867,0,0,0,2.217,7.241Zm16.537-12.609a1.161,1.161,0,0,1,1.157-1.158h44.652a1.159,1.159,0,0,1,0,2.319h-44.652A1.163,1.163,0,0,1,1032.772,354.123Zm45.81-4.884h-23.59a1.158,1.158,0,1,1,0-2.317h23.59a1.158,1.158,0,0,1,0,2.317Zm-45.81-7.2a1.161,1.161,0,0,1,1.157-1.158h44.652a1.158,1.158,0,0,1,0,2.317h-44.652A1.161,1.161,0,0,1,1032.772,342.039Zm45.81-4.884h-32.938a1.159,1.159,0,0,1,0-2.319h32.938a1.159,1.159,0,0,1,0,2.319Zm-45.81-7.2a1.161,1.161,0,0,1,1.157-1.158h44.652a1.159,1.159,0,0,1,0,2.319h-44.652A1.163,1.163,0,0,1,1032.772,329.953Z" fill="#6e9fe5"/>
      <g id="Group_552" data-name="Group 552">
        <g id="Group_551" data-name="Group 551" opacity="0.5">
          <g id="Group_550" data-name="Group 550">
            <g id="Group_549" data-name="Group 549">
              <path id="Path_723" data-name="Path 723" d="M1181.21,469.245l-8.842,4.72,4.421-11.506" fill="#389fe5"/>
            </g>
            <path id="Path_724" data-name="Path 724" d="M1208.644,454.533a18.688,18.688,0,1,1-18.688-18.705A18.7,18.7,0,0,1,1208.644,454.533Z" fill="#389fe5"/>
          </g>
        </g>
        <path id="Path_725" data-name="Path 725" d="M1182.09,452.752l5.67,7.064,10.062-10.564" fill="none" stroke="#fff" stroke-linecap="round" stroke-linejoin="round" stroke-width="2.755"/>
      </g>
      <g id="Group_577" data-name="Group 577">
        <g id="Group_553" data-name="Group 553">
          <path id="Path_726" data-name="Path 726" d="M542.656,684.076a8.777,8.777,0,1,1-9.833-7.582A8.784,8.784,0,0,1,542.656,684.076Z" fill="#9999f1"/>
          <path id="Path_727" data-name="Path 727" d="M530.175,686.112l3.859,2.881,3.776-6.78" fill="none" stroke="#fff" stroke-linecap="round" stroke-linejoin="round" stroke-width="2.109"/>
        </g>
        <g id="Group_554" data-name="Group 554">
          <path id="Path_728" data-name="Path 728" d="M719.316,257.48a8.776,8.776,0,1,1-11.072-5.613A8.785,8.785,0,0,1,719.316,257.48Z" fill="#9999f1"/>
          <path id="Path_729" data-name="Path 729" d="M707.434,261.81l4.328,2.11,2.446-7.366" fill="none" stroke="#fff" stroke-linecap="round" stroke-linejoin="round" stroke-width="2.109"/>
        </g>
        <g id="Group_555" data-name="Group 555">
          <path id="Path_730" data-name="Path 730" d="M1177.931,355.765a13.421,13.421,0,1,1-12.4-14.387A13.423,13.423,0,0,1,1177.931,355.765Z" fill="#9999f1"/>
          <path id="Path_731" data-name="Path 731" d="M1158.61,354.97l4.895,5.5,7.74-8.993" fill="none" stroke="#fff" stroke-linecap="round" stroke-linejoin="round" stroke-width="3.225"/>
        </g>
        <g id="Group_556" data-name="Group 556">
          <path id="Path_732" data-name="Path 732" d="M964.713,219.767a11.9,11.9,0,1,1-10.986-12.809A11.927,11.927,0,0,1,964.713,219.767Z" fill="#9999f1"/>
          <path id="Path_733" data-name="Path 733" d="M947.588,219.065l4.337,4.9,6.863-8.012" fill="none" stroke="#fff" stroke-linecap="round" stroke-linejoin="round" stroke-width="3.225"/>
        </g>
        <path id="Path_734" data-name="Path 734" d="M1150.178,418.842a3.227,3.227,0,1,1-3.228-3.232A3.229,3.229,0,0,1,1150.178,418.842Z" fill="#9999f1"/>
        <path id="Path_735" data-name="Path 735" d="M1041.51,196.638a3.227,3.227,0,1,1-3.228-3.23A3.229,3.229,0,0,1,1041.51,196.638Z" fill="#9999f1" opacity="0.3"/>
        <path id="Path_736" data-name="Path 736" d="M515.8,491.237a5.151,5.151,0,1,1-5.15-5.157A5.152,5.152,0,0,1,515.8,491.237Z" fill="#9999f1"/>
        <path id="Path_737" data-name="Path 737" d="M1236.408,544.431a7.922,7.922,0,1,1-7.923-7.93A7.928,7.928,0,0,1,1236.408,544.431Z" fill="#9999f1" opacity="0.3"/>
        <path id="Path_738" data-name="Path 738" d="M516.967,433.9a7.922,7.922,0,1,1-7.923-7.93A7.928,7.928,0,0,1,516.967,433.9Z" fill="#9999f1" opacity="0.3"/>
        <path id="Path_739" data-name="Path 739" d="M594.918,557.518a5.151,5.151,0,1,1-5.15-5.155A5.152,5.152,0,0,1,594.918,557.518Z" fill="#9999f1"/>
        <path id="Path_740" data-name="Path 740" d="M626.406,427.253a7.922,7.922,0,1,1-7.921-7.932A7.926,7.926,0,0,1,626.406,427.253Z" fill="#9999f1" opacity="0.3"/>
        <path id="Path_741" data-name="Path 741" d="M1233.637,614.93a5.151,5.151,0,1,1-5.152-5.155A5.154,5.154,0,0,1,1233.637,614.93Z" fill="#9999f1" opacity="0.3"/>
        <path id="Path_742" data-name="Path 742" d="M831.674,215.313a5.151,5.151,0,1,1-5.15-5.157A5.152,5.152,0,0,1,831.674,215.313Z" fill="#9999f1" opacity="0.3"/>
        <path id="Path_743" data-name="Path 743" d="M927.547,231.7a5.151,5.151,0,1,1-5.15-5.157A5.152,5.152,0,0,1,927.547,231.7Z" fill="#9999f1" opacity="0.2"/>
        <g id="Group_560" data-name="Group 560">
          <g id="Group_559" data-name="Group 559">
            <g id="Group_557" data-name="Group 557">
              <path id="Path_744" data-name="Path 744" d="M502.746,364.106a1.03,1.03,0,0,1-1.03-1.031v-7.268a1.03,1.03,0,1,1,2.059,0v7.268A1.03,1.03,0,0,1,502.746,364.106Z" fill="#9999f1"/>
            </g>
            <g id="Group_558" data-name="Group 558">
              <path id="Path_745" data-name="Path 745" d="M506.378,360.471h-7.261a1.031,1.031,0,0,1,0-2.061h7.261a1.031,1.031,0,0,1,0,2.061Z" fill="#9999f1"/>
            </g>
          </g>
        </g>
        <g id="Group_564" data-name="Group 564">
          <g id="Group_563" data-name="Group 563">
            <g id="Group_561" data-name="Group 561">
              <path id="Path_746" data-name="Path 746" d="M594.916,314.285a1.03,1.03,0,0,1-1.028-1.031v-7.268a1.029,1.029,0,1,1,2.057,0v7.268A1.03,1.03,0,0,1,594.916,314.285Z" fill="#9999f1"/>
            </g>
            <g id="Group_562" data-name="Group 562">
              <path id="Path_747" data-name="Path 747" d="M598.55,310.65h-7.263a1.031,1.031,0,0,1,0-2.061h7.263a1.031,1.031,0,0,1,0,2.061Z" fill="#9999f1"/>
            </g>
          </g>
        </g>
        <g id="Group_568" data-name="Group 568" opacity="0.3">
          <g id="Group_567" data-name="Group 567">
            <g id="Group_565" data-name="Group 565">
              <path id="Path_748" data-name="Path 748" d="M538.611,223.7a1.031,1.031,0,0,1-1.03-1.029V215.4a1.03,1.03,0,0,1,2.059,0v7.27A1.03,1.03,0,0,1,538.611,223.7Z" fill="#9999f1"/>
            </g>
            <g id="Group_566" data-name="Group 566">
              <path id="Path_749" data-name="Path 749" d="M542.243,220.063h-7.261a1.031,1.031,0,0,1,0-2.061h7.261a1.031,1.031,0,0,1,0,2.061Z" fill="#9999f1"/>
            </g>
          </g>
        </g>
        <g id="Group_572" data-name="Group 572">
          <g id="Group_571" data-name="Group 571">
            <g id="Group_569" data-name="Group 569">
              <path id="Path_750" data-name="Path 750" d="M1079.4,268.428a1.031,1.031,0,0,1-1.03-1.031v-7.268a1.03,1.03,0,0,1,2.059,0V267.4A1.03,1.03,0,0,1,1079.4,268.428Z" fill="#9999f1"/>
            </g>
            <g id="Group_570" data-name="Group 570">
              <path id="Path_751" data-name="Path 751" d="M1083.027,264.794h-7.261a1.031,1.031,0,0,1,0-2.061h7.261a1.031,1.031,0,0,1,0,2.061Z" fill="#9999f1"/>
            </g>
          </g>
        </g>
        <g id="Group_576" data-name="Group 576">
          <g id="Group_575" data-name="Group 575">
            <g id="Group_573" data-name="Group 573">
              <path id="Path_752" data-name="Path 752" d="M1197.82,652.142a1.03,1.03,0,0,1-1.03-1.031v-7.268a1.03,1.03,0,0,1,2.059,0v7.268A1.03,1.03,0,0,1,1197.82,652.142Z" fill="#9999f1"/>
            </g>
            <g id="Group_574" data-name="Group 574">
              <path id="Path_753" data-name="Path 753" d="M1201.451,648.506h-7.261a1.03,1.03,0,0,1,0-2.059h7.261a1.03,1.03,0,1,1,0,2.059Z" fill="#9999f1"/>
            </g>
          </g>
        </g>
      </g>
    </g>
    <g id="Group_580" data-name="Group 580">
      <g id="Group_579" data-name="Group 579">
        <path id="Path_754" data-name="Path 754" d="M839.545,514.259H762.9l8.325-32.764,1.887-7.431,3.663-14.389h48.893l3.663,14.389,1.887,7.431Z" fill="#333"/>
        <path id="Path_755" data-name="Path 755" d="M831.22,481.495H771.228l1.887-7.431h56.219Z" fill="#494949"/>
        <path id="Path_756" data-name="Path 756" d="M868.956,523.311H733.486a5.888,5.888,0,0,1-5.884-5.892h0a5.886,5.886,0,0,1,5.884-5.89H868.956a5.888,5.888,0,0,1,5.886,5.89h0A5.89,5.89,0,0,1,868.956,523.311Z" fill="#333"/>
      </g>
      <rect id="Rectangle_76" data-name="Rectangle 76" width="250.097" height="156.655" rx="6.212" transform="translate(676.179 314.257)" fill="#333"/>
      <rect id="Rectangle_77" data-name="Rectangle 77" width="240.485" height="127.137" transform="translate(680.754 318.819)" fill="#fff"/>
      <path id="Path_757" data-name="Path 757" d="M801.21,463.8h0a5.788,5.788,0,0,1-5.766-5.772h0a5.786,5.786,0,0,1,5.766-5.772h0a5.786,5.786,0,0,1,5.766,5.772h0A5.788,5.788,0,0,1,801.21,463.8Z" fill="#494949"/>
      <path id="Path_758" data-name="Path 758" d="M818.9,470.8H802.006l44.425-156.541h16.892Z" opacity="0.2" fill="url(#linear-gradient)"/>
      <path id="Path_759" data-name="Path 759" d="M861.339,470.8H825.5l44.425-156.541h35.838Z" opacity="0.2" fill="url(#linear-gradient)"/>
      <rect id="Rectangle_78" data-name="Rectangle 78" width="223.721" height="18.543" transform="translate(690.537 329.73)" fill="#b8b8f4"/>
      <rect id="Rectangle_79" data-name="Rectangle 79" width="27.543" height="27.572" transform="translate(748.612 409.902)" fill="#b8b8f4"/>
      <rect id="Rectangle_80" data-name="Rectangle 80" width="27.543" height="27.572" transform="translate(748.612 365.499)" fill="#b8b8f4"/>
      <rect id="Rectangle_81" data-name="Rectangle 81" width="27.543" height="27.572" transform="translate(861.07 409.902)" fill="#b8b8f4"/>
      <rect id="Rectangle_82" data-name="Rectangle 82" width="27.543" height="27.572" transform="translate(861.07 365.499)" fill="#b8b8f4"/>
      <text id="A" transform="translate(703.912 392.526)" fill="#854dce" font-size="37" font-family="SegoeUI, Segoe UI"><tspan x="0" y="0">A</tspan></text>
      <text id="B" transform="translate(821.29 392.526)" fill="#854dce" font-size="37" font-family="SegoeUI, Segoe UI"><tspan x="0" y="0">B</tspan></text>
      <text id="D" transform="translate(821.29 433.529)" fill="#854dce" font-size="37" font-family="SegoeUI, Segoe UI"><tspan x="0" y="0">D</tspan></text>
      <text id="C" transform="translate(703.912 433.529)" fill="#854dce" font-size="37" font-family="SegoeUI, Segoe UI"><tspan x="0" y="0">C</tspan></text>
    </g>
    <g id="Group_590" data-name="Group 590">
      <g id="Group_586" data-name="Group 586">
        <g id="Group_585" data-name="Group 585">
          <g id="Group_583" data-name="Group 583">
            <g id="Group_581" data-name="Group 581">
              <path id="Path_760" data-name="Path 760" d="M651.77,754.463V532.457a.9.9,0,0,0-.9-.9h-5.379a.9.9,0,0,0-.9.9V754.463a3.137,3.137,0,0,0-2.466,3.04,3.183,3.183,0,0,0,3.182,3.184h5.742a3.183,3.183,0,0,0,3.18-3.184A3.135,3.135,0,0,0,651.77,754.463Z" fill="#9999f1"/>
            </g>
            <g id="Group_582" data-name="Group 582">
              <path id="Path_761" data-name="Path 761" d="M1091.776,754.317h-.182V531.558h-7.173V754.317h-.182a2.287,2.287,0,0,0-2.285,2.287v1.8a2.285,2.285,0,0,0,2.285,2.287h7.536a2.284,2.284,0,0,0,2.285-2.287v-1.8A2.285,2.285,0,0,0,1091.776,754.317Z" fill="#9999f1"/>
            </g>
          </g>
          <g id="Group_584" data-name="Group 584">
            <path id="Path_762" data-name="Path 762" d="M1147.6,533.781H581.957a6.68,6.68,0,0,1-6.676-6.683h0a6.68,6.68,0,0,1,6.676-6.685H1147.6a6.68,6.68,0,0,1,6.676,6.685h0A6.68,6.68,0,0,1,1147.6,533.781Z" fill="#9999f1"/>
          </g>
        </g>
      </g>
      <g id="Group_587" data-name="Group 587">
        <path id="Path_763" data-name="Path 763" d="M914.837,384.523a3.888,3.888,0,0,1-3.382-1.955l-5.148-9.062a3.875,3.875,0,0,1,1.556-5.343l14.328-7.576a3.888,3.888,0,0,1,5.21,1.574l4.888,8.988a3.873,3.873,0,0,1-1.552,5.259l-14.069,7.65A3.847,3.847,0,0,1,914.837,384.523Zm9.154-22.594a2.045,2.045,0,0,0-.966.24L908.7,369.742a2.085,2.085,0,0,0-.838,2.878v0l5.148,9.062a2.1,2.1,0,0,0,2.809.8l14.071-7.65A2.089,2.089,0,0,0,930.72,372l-4.888-8.988A2.1,2.1,0,0,0,923.992,361.929Z" fill="#1a1a47"/>
      </g>
      <path id="Path_764" data-name="Path 764" d="M887.859,463.547a31.653,31.653,0,0,1-2.071,2.421s-8.608-6.525-11.006-7.141c-2.376-.6-7.556.871-10.411,1.456-4.679.961-2.74-2.872-2.74-2.872s-3.153,1.109-5.918,2.231c-3.155,1.28-6.441,3.921-7.391,4.151-1.8.431-3.572-.467-1.886-3,2.388-3.583,13.672-13.952,16.479-15.306,3.586-1.7,8.464-4.185,12.379-2.728,3.935,1.456,16.663,11.018,16.663,11.018C892.326,457.064,889.785,461.065,887.859,463.547Z" fill="#f7b59c"/>
      <path id="Path_765" data-name="Path 765" d="M884.479,465.972s42.228,36.975,73.825,40.736,84.885-56.252,84.885-56.252-3.352-31.968-23.055-28.211-46.115,51.293-57.56,53.516-70.944-23.02-70.944-23.02a15.462,15.462,0,0,0-3.681,4.536A39.752,39.752,0,0,0,884.479,465.972Z" fill="#9ca2f2"/>
      <path id="Path_766" data-name="Path 766" d="M978.387,321.53c-10.072-11.541-24.957-12.781-36.45-11.509-15.088,1.67-28.2,11.854-32.557,26.411a33.965,33.965,0,0,0,.684,21.753c9.378,25.926,19.338,40.209,27,47.23,3.368,3.086,10.467-1.115,17.6-3.625a2.013,2.013,0,0,1,2.45.939l4.074,7.534,29.424-6.012a104.049,104.049,0,0,1-6.209-17.094C988.261,382.29,996.815,342.642,978.387,321.53Z" fill="#f7b59c"/>
      <path id="Path_767" data-name="Path 767" d="M924.844,358.521a7.585,7.585,0,0,1,7.7,4.522c2.179,5.189,5.543,12.45,8.187,14.811a2.7,2.7,0,0,0,2.913.028,2.28,2.28,0,0,0,1.329-2.263c-.227-2.241-1.888-7.1-3.061-10.332-1.506-4.143.279-8.527,5.22-9.635a11.734,11.734,0,0,1,4.308.268c7.833,2.379,2.436,14.673,2.279,21.1-.112,4.526,5.3,15.02,7.7,15.963,7.869,3.092,19.8.3,26.122-7.524s7.7-33.975,4.242-49.621-15.964-24.474-20.094-25.479a14.515,14.515,0,0,0-4.912-.382,4.569,4.569,0,0,1-3.452-1.129c-4.164-3.627-16.607-11.916-36.29-3.408a45.685,45.685,0,0,0-28.245,43.585c.291,6.681,5.533,6.188,9.168,5.023a6.064,6.064,0,0,1,5.772,1.25C915.789,357.057,919.337,358.957,924.844,358.521Z" fill="#0b0b3a"/>
      <path id="Path_768" data-name="Path 768" d="M956.112,414.27s-2.616-2.918-1.622-4.7c1.231-2.213,14.572-12.781,30.145-12.226,2.42.088,5.379.086,8.284,6.412A45.763,45.763,0,0,1,996.5,414.27Z" fill="#9ca2f2"/>
      <path id="Path_769" data-name="Path 769" d="M1025.505,602.862c-.944.226-1.969.451-3.035.655-13.219,2.463-34.72,2.75-34.72,2.75-42.384-.759-61.2-23.635-68.085-35.433a44.128,44.128,0,0,1-3.382-6.913c2.418-1.294,10.884-8.988,14.081-19.492,3.2-10.524-.164-35.617-5.637-45.179-3.013-5.251-11.928-15.9-17.523-27.122-4.591-9.234-6.969-18.855-1.947-26.2,12.461-18.32,32.116-28.067,32.116-28.067s36.073-14.463,66.794-11.181c19.492,2.051,36.851,11.243,41.484,35.8C1057.6,505.734,1025.505,602.862,1025.505,602.862Z" fill="#b0b2ff"/>
      <path id="Path_770" data-name="Path 770" d="M936.807,728.128a13.988,13.988,0,0,1-7.612,4.3,13.507,13.507,0,0,1-8.863-1.648l-2.354-6.807,16.263-3.545Z" fill="#f7b59c"/>
      <path id="Path_771" data-name="Path 771" d="M851.583,736.557a13.978,13.978,0,0,1-8.2,3.036,13.51,13.51,0,0,1-8.488-3.036l-1.247-7.095h16.686Z" fill="#f7b59c"/>
      <path id="Path_772" data-name="Path 772" d="M936.807,720.426c-1.065.491-4.312,1.824-5.479,2.235a152.26,152.26,0,0,1-14.893,3.849c-13.985-30.256-36.8-106.394-36.8-106.394-3.176-13.458,6.395-18.9,14.8-19.409a17.834,17.834,0,0,1,7.748,1.129C910.218,605.241,922,628,922,628s3.588,7.858,7.337,24.108C933.09,668.332,936.807,720.426,936.807,720.426Z" fill="#1a1a47"/>
      <path id="Path_773" data-name="Path 773" d="M968.385,604.175c-.1,7.654-2.133,19.86-13.59,23.307-17.094,5.129-29.718,2.217-49.537-1.21-16.6-2.852-42.815-12.577-50.85-15.633-1.045-.389-.852.134-.646,1.22,3.793,18.548-2.346,118.762-2.346,118.762a47.049,47.049,0,0,1-5.657,1.314,22.867,22.867,0,0,1-3.258.288c-4.3,0-12.217-.811-12.217-.811s-15.206-70.589-17.6-110.083c-2.376-39.5.016-45.6,18.7-52.106,20.827-7.25,84.9-5.3,84.9-5.3l.02.02c.225.7,4.735,13.029,18.037,24.188C942.252,594.8,953.3,601.037,968.385,604.175Z" fill="#3d3d72"/>
      <g id="Group_588" data-name="Group 588">
        <path id="Path_774" data-name="Path 774" d="M987.763,644.326V745.743a6.539,6.539,0,1,1-13.077,0V644.326Z" fill="#94c1f7"/>
        <path id="Path_775" data-name="Path 775" d="M987.763,648.738v96.725a7,7,0,0,1-5.633,6.763,6.531,6.531,0,0,1-4.18-.817c-.206-.385-.455-.849-.66-1.234V651.423a2.682,2.682,0,0,1,2.682-2.684Z" fill="#b5d0ff"/>
        <path id="Path_776" data-name="Path 776" d="M996.041,640.92a5.26,5.26,0,0,1-.184,1.4,5.666,5.666,0,0,1-5.451,4.246H970.935a5.649,5.649,0,0,1-5.637-5.643,5.671,5.671,0,0,1,5.637-5.641h19.472A5.634,5.634,0,0,1,996.041,640.92Z" fill="#94c1f7"/>
        <path id="Path_777" data-name="Path 777" d="M995.857,642.317a5.666,5.666,0,0,1-5.451,4.246H971.774a5.561,5.561,0,0,1,1.457-2.6,5.7,5.7,0,0,1,4-1.642Z" fill="#b5d0ff"/>
        <path id="Path_778" data-name="Path 778" d="M1065.413,463.979c0,.062-.03.092-.03.154a18.555,18.555,0,0,1-.341,1.927c-1.584,6.619-7.173,19.578-7.979,39-.529,11.934-.032,43.6-.59,62.746v.032c-.092,2.858-.186,5.407-.309,7.614-1.026,16.938-6.8,42.049-24.464,54.76-17.946,13.486-54.05,11.155-75.968,10.66-21.918-.529-76.216-10.412-80.563-18.492a7.02,7.02,0,0,1-1.024-4.662c0-.032,0-.032.032-.062a5.647,5.647,0,0,1,1.676-3.108,8.443,8.443,0,0,1,8.009-1.989c8.847,2.207,35.175,7.3,47.033-7.738,14.344-18.212,12.544-39.252,18.69-83.6,5.806-41.955,18.875-54.822,40.514-63.181,23.129-8.92,60.291-5.1,69.573-2.3A7.949,7.949,0,0,1,1065.413,463.979Z" fill="#cfe3ff"/>
        <path id="Path_779" data-name="Path 779" d="M1057.057,758.258a2.4,2.4,0,0,1-2.4,2.4H907.788a2.4,2.4,0,0,1-.389-4.76l73.825-11.98,18.568,3.016,55.235,8.964A2.4,2.4,0,0,1,1057.057,758.258Z" fill="#b5d0ff"/>
      </g>
      <path id="Path_780" data-name="Path 780" d="M834.89,736.557a27,27,0,0,0,8.432,1.754,20.277,20.277,0,0,0,8.3-1.754s8.556,10.908,4.01,23.06a1.647,1.647,0,0,1-1.544,1.049H796.717a1.287,1.287,0,0,1-1.3-1.246c-.018-1.416.551-3.669,4.034-4.738,5.294-1.624,10.761-2.523,14.859-3.975s9.984-7.48,13.279-8.593C831.772,740.7,834.89,736.557,834.89,736.557Z" fill="#1a1a47"/>
      <path id="Path_781" data-name="Path 781" d="M920.324,730.78a27.037,27.037,0,0,0,8.606.391,20.347,20.347,0,0,0,7.921-3.05s10.176,9.408,7.616,22.129a1.654,1.654,0,0,1-1.359,1.28s-30.272,6.793-40.508,8.257a145.289,145.289,0,0,1-16.138.9,1.369,1.369,0,0,1-1.484-1.063c-.243-1.394-.04-3.709,3.23-5.319,4.97-2.445,10.224-4.2,14.041-6.286s8.672-8.972,11.748-10.592C917.9,735.368,920.324,730.78,920.324,730.78Z" fill="#1a1a47"/>
      <path id="Path_782" data-name="Path 782" d="M805.147,514.864s-5.882-2.441-8.957-3.529a34.118,34.118,0,0,0-3.32-.963,17.76,17.76,0,0,0-4.036-.431H755.4a1.759,1.759,0,0,1-1.742-1.764,3.816,3.816,0,0,1,1.742-3.222l3.587-2.319,10.719-6.935c5.307-3.425,9.166-3.635,15.479-3.082,1.189.1,5.708,2.023,6.572,2.307,6.263,2.069,7.626,3.012,11.786,4.488a28.608,28.608,0,0,0,3.506,1.067,3.4,3.4,0,0,0,1.433.146A20.08,20.08,0,0,1,805.147,514.864Z" fill="#f7b59c"/>
      <path id="Path_783" data-name="Path 783" d="M936.035,434.927c-4.38-2.676-17.626-10.041-34.706,16.622s-22.315,38.038-27.253,46.325c-5.978,3.589-66.171,2.053-66.171,2.053s-3.715,8.015-4.356,14.94c0,0,31.974,15.9,74.4,18.913,32.856,0,66.708-64.276,68.245-72.311S946.5,441.326,936.035,434.927Z" fill="#b0b2ff"/>
      <g id="Group_589" data-name="Group 589">
        <path id="Path_784" data-name="Path 784" d="M908.343,378.4a.894.894,0,0,1-.409-1.69l33.285-17.076c3.765-1.933,11.475-5.884,17.2,2.519a.893.893,0,0,1-1.475,1.009c-4.461-6.555-9.785-4.566-14.847-1.967L908.75,378.3A.873.873,0,0,1,908.343,378.4Z" fill="#1a1a47"/>
      </g>
      <path id="Path_785" data-name="Path 785" d="M941.139,361.373l4.4,14.054a4.456,4.456,0,0,0,6.714-.489c3.3-3.8,6.163-16.986.122-19.185S942.665,356.67,941.139,361.373Z" fill="#f7b59c"/>
      <path id="Path_786" data-name="Path 786" d="M1064.078,459.005a.248.248,0,0,1-.03-.094,8.157,8.157,0,0,0-4.378-3.17c-9.282-2.8-46.444-6.619-69.573,2.3-21.639,8.359-34.708,21.226-40.514,63.181-6.145,44.348-4.346,65.388-18.69,83.6-11.858,15.04-38.186,9.945-47.033,7.738a8.443,8.443,0,0,0-8.009,1.989,5.768,5.768,0,0,0-1.708,3.17,7.02,7.02,0,0,0,1.024,4.662c4.348,8.079,58.645,17.962,80.563,18.492,21.918.5,58.023,2.826,75.968-10.66,17.664-12.711,23.439-37.822,24.464-54.76.124-2.207.217-4.756.309-7.614-.371,1.554-12.506,35.773-55.227,27.887-41.153-7.6-44.892-52.785-43.421-67.987.2-1.65.389-3.256.577-4.746.373-2.822,2.632-14.731,5.433-25.145a50.587,50.587,0,0,1,16.194-25.175,24,24,0,0,1,3.925-2.357c.4-.25.868-.5,1.335-.747.621-.342,1.273-.653,2.017-.995l2.141-.931c.529-.218,1.087-.435,1.616-.623,33.435-13.239,69.386-4.63,71.744-4.256C1065.042,463.138,1064.234,459.626,1064.078,459.005Z" fill="#94c1f7" opacity="0.5"/>
    </g>
  </g>
</svg>
