<svg xmlns="http://www.w3.org/2000/svg" width="27" height="27.001" viewBox="0 0 27 27.001">
  <path id="Shape_1" data-name="Shape 1" d="M138.262,41.408a23.058,23.058,0,0,1-8.944-5.767,23.046,23.046,0,0,1-5.767-8.946c-.97-3.059-.7-5.621.768-7.247.022-.028.462-.473.462-.473a1.625,1.625,0,0,1,.41-1.6L126.566,16a1.618,1.618,0,0,1,2.29,0l5.29,5.289a1.623,1.623,0,0,1,0,2.291l-1.376,1.378a1.626,1.626,0,0,1-1.145.472,1.69,1.69,0,0,1-.45-.061l-.519.519c-.369.369.2,2.662,2.972,5.436s5.072,3.343,5.44,2.973h0l.519-.517a1.618,1.618,0,0,1,.41-1.594l1.376-1.379a1.624,1.624,0,0,1,2.29,0l5.29,5.292a1.622,1.622,0,0,1,0,2.291l-1.376,1.373a1.6,1.6,0,0,1-1.145.476,1.629,1.629,0,0,1-.45-.066l-.289.291a5.573,5.573,0,0,1-4.079,1.51A11.22,11.22,0,0,1,138.262,41.408Zm-12.625-21c-1.166,1.166-1.358,3.226-.542,5.8a21.418,21.418,0,0,0,5.368,8.286,21.439,21.439,0,0,0,8.287,5.369c2.575.817,4.634.625,5.8-.542l.146-.147-4.106-4.106-.376.378a2.048,2.048,0,0,1-1.5.569c-1.769,0-4.235-1.552-6.225-3.539-2.659-2.662-4.533-6.169-2.973-7.73,0,0,0,0,0,0l.376-.377-4.106-4.1Zm15.507,12.924,5.29,5.291,1.376-1.377-5.291-5.292ZM126.335,18.525l2.646,2.645,2.625,2.628.02.019h0L133,22.441l-5.29-5.288Zm22.026,8.717A10.644,10.644,0,0,0,137.717,16.6a.81.81,0,0,1,0-1.621A12.262,12.262,0,0,1,149.98,27.242a.81.81,0,0,1-1.619,0Zm-4.108,0a6.536,6.536,0,0,0-6.535-6.536.809.809,0,1,1,0-1.617,8.148,8.148,0,0,1,8.154,8.153.81.81,0,0,1-1.619,0Zm-4.108,0a2.426,2.426,0,0,0-2.427-2.426.811.811,0,0,1,0-1.622,4.05,4.05,0,0,1,4.046,4.048.81.81,0,1,1-1.619,0Z" transform="translate(-122.98 -14.978)"/>
</svg>
